<svg width="48" height="48" viewBox="0 0 48 48" fill="none" xmlns="http://www.w3.org/2000/svg">
<rect width="48" height="48" rx="24" fill="#EEEEEE"/>
<g clip-path="url(#clip0_11_45526)">
<path d="M29.8333 17.3333H29.41L27.59 14.9733C27.3554 14.6715 27.0553 14.427 26.7122 14.2584C26.3692 14.0897 25.9923 14.0014 25.61 14H22.39C22.0077 14.0014 21.6308 14.0897 21.2878 14.2584C20.9447 14.427 20.6446 14.6715 20.41 14.9733L18.59 17.3333H18.1667C17.062 17.3347 16.003 17.7741 15.2218 18.5552C14.4407 19.3363 14.0013 20.3953 14 21.5V29.8333C14.0013 30.938 14.4407 31.997 15.2218 32.7782C16.003 33.5593 17.062 33.9987 18.1667 34H29.8333C30.938 33.9987 31.997 33.5593 32.7782 32.7782C33.5593 31.997 33.9987 30.938 34 29.8333V21.5C33.9987 20.3953 33.5593 19.3363 32.7782 18.5552C31.997 17.7741 30.938 17.3347 29.8333 17.3333ZM21.73 15.9917C21.8081 15.8909 21.9081 15.8092 22.0224 15.7529C22.1368 15.6966 22.2625 15.6671 22.39 15.6667H25.61C25.7375 15.6672 25.8631 15.6968 25.9775 15.7531C26.0918 15.8094 26.1919 15.891 26.27 15.9917L27.305 17.3333H20.695L21.73 15.9917ZM32.3333 29.8333C32.3333 30.4964 32.0699 31.1323 31.6011 31.6011C31.1323 32.0699 30.4964 32.3333 29.8333 32.3333H18.1667C17.5036 32.3333 16.8677 32.0699 16.3989 31.6011C15.9301 31.1323 15.6667 30.4964 15.6667 29.8333V21.5C15.6667 20.837 15.9301 20.2011 16.3989 19.7322C16.8677 19.2634 17.5036 19 18.1667 19H29.8333C30.4964 19 31.1323 19.2634 31.6011 19.7322C32.0699 20.2011 32.3333 20.837 32.3333 21.5V29.8333Z" fill="black"/>
<path d="M24 20.6667C23.0111 20.6667 22.0444 20.96 21.2222 21.5094C20.3999 22.0588 19.759 22.8397 19.3806 23.7533C19.0022 24.667 18.9031 25.6723 19.0961 26.6422C19.289 27.6121 19.7652 28.503 20.4645 29.2023C21.1637 29.9015 22.0546 30.3777 23.0246 30.5707C23.9945 30.7636 24.9998 30.6646 25.9134 30.2861C26.827 29.9077 27.6079 29.2668 28.1573 28.4446C28.7068 27.6224 29 26.6557 29 25.6667C28.9987 24.3411 28.4715 23.0701 27.5341 22.1327C26.5967 21.1953 25.3257 20.6681 24 20.6667ZM24 29.0001C23.3407 29.0001 22.6963 28.8046 22.1481 28.4383C21.5999 28.072 21.1727 27.5514 20.9204 26.9424C20.6681 26.3333 20.6021 25.6631 20.7307 25.0164C20.8593 24.3698 21.1768 23.7759 21.643 23.3097C22.1092 22.8436 22.7031 22.5261 23.3497 22.3975C23.9963 22.2688 24.6665 22.3349 25.2756 22.5871C25.8847 22.8394 26.4053 23.2667 26.7716 23.8148C27.1378 24.363 27.3333 25.0075 27.3333 25.6667C27.3333 26.5508 26.9821 27.3986 26.357 28.0238C25.7319 28.6489 24.8841 29.0001 24 29.0001Z" fill="black"/>
</g>
<defs>
<clipPath id="clip0_11_45526">
<rect width="20" height="20" fill="white" transform="translate(14 14)"/>
</clipPath>
</defs>
</svg>
