<svg width="48" height="48" viewBox="0 0 48 48" fill="none" xmlns="http://www.w3.org/2000/svg">
<rect width="48" height="48" rx="24" fill="#EEEEEE"/>
<path d="M29.8333 16.6658H24.3933C24.265 16.6658 24.135 16.6358 24.0208 16.5783L21.3933 15.265C21.0475 15.0917 20.6608 15 20.2733 15H18.1667C15.8692 14.9992 14 16.8683 14 19.1658V29.1658C14 31.4633 15.8692 33.3325 18.1667 33.3325H20.6667C21.1267 33.3325 21.5 32.96 21.5 32.4992C21.5 32.0383 21.1267 31.6658 20.6667 31.6658H18.1667C16.7883 31.6658 15.6667 30.5442 15.6667 29.1658V21.6658H32.3333V29.1658C32.3333 30.5442 31.2117 31.6658 29.8333 31.6658H27.3333C26.8733 31.6658 26.5 32.0383 26.5 32.4992C26.5 32.96 26.8733 33.3325 27.3333 33.3325H29.8333C32.1308 33.3325 34 31.4633 34 29.1658V20.8325C34 18.535 32.1308 16.6658 29.8333 16.6658ZM15.6667 19.1658C15.6667 17.7875 16.7883 16.6658 18.1667 16.6658H20.2733C20.4017 16.6658 20.53 16.6958 20.6458 16.7542L23.2758 18.0683C23.6217 18.2408 24.0075 18.3317 24.3933 18.3317H29.8333C30.9183 18.3317 31.835 19.0308 32.18 19.9983H15.6667V19.1658ZM25.9108 27.4125L24.8333 26.335V32.4992C24.8333 32.96 24.46 33.3325 24 33.3325C23.54 33.3325 23.1667 32.96 23.1667 32.4992V26.335L22.0892 27.4125C21.9267 27.575 21.7133 27.6567 21.5 27.6567C21.2867 27.6567 21.0733 27.575 20.9108 27.4125C20.585 27.0867 20.585 26.56 20.9108 26.2342L22.255 24.89C23.1867 23.9575 24.8125 23.9575 25.745 24.89L27.0892 26.2342C27.415 26.56 27.415 27.0867 27.0892 27.4125C26.7633 27.7383 26.2367 27.7383 25.9108 27.4125Z" fill="black"/>
</svg>
