<svg xmlns="http://www.w3.org/2000/svg" width="17" height="17" viewBox="0 0 17 17">
  <g id="Group_1811" data-name="Group 1811" transform="translate(1420 -1630)">
    <rect id="Rectangle_1057" data-name="Rectangle 1057" width="17" height="17" rx="4" transform="translate(-1420 1630)" fill="#00c792"/>
    <path id="Icon_awesome-check-circle" data-name="Icon awesome-check-circle" d="M13.562,7.063a6.729,6.729,0,0,1-6.5,6.5,6.5,6.5,0,1,1,0-13A6.729,6.729,0,0,1,13.562,7.063Z" transform="translate(-1418.563 1631.438)" fill="#fff"/>
    <path id="Icon_awesome-check-circle-2" data-name="Icon awesome-check-circle" d="M15.563,8.063a7.764,7.764,0,0,1-7.5,7.5,7.5,7.5,0,0,1,0-15A7.764,7.764,0,0,1,15.563,8.063ZM7.195,12.034l5.565-5.565a.484.484,0,0,0,0-.684L12.075,5.1a.484.484,0,0,0-.684,0L6.853,9.639,4.734,7.52a.484.484,0,0,0-.684,0L3.366,8.2a.484.484,0,0,0,0,.684l3.145,3.145a.484.484,0,0,0,.684,0Z" transform="translate(-1419.563 1630.438)" fill="#00c792"/>
  </g>
</svg>
