<svg xmlns="http://www.w3.org/2000/svg" width="30.653" height="25.08" viewBox="0 0 30.653 25.08">
  <g id="Icon_feather-users" data-name="Icon feather-users" transform="translate(-1.5 -4.5)">
    <path id="Path_6434" data-name="Path 6434" d="M23.793,30.86V28.073A5.573,5.573,0,0,0,18.22,22.5H7.073A5.573,5.573,0,0,0,1.5,28.073V30.86" transform="translate(0 -1.28)" fill="#00c792"/>
    <path id="Path_6435" data-name="Path 6435" d="M18.647,10.073A5.573,5.573,0,1,1,13.073,4.5,5.573,5.573,0,0,1,18.647,10.073Z" transform="translate(-0.427 0)" fill="#00c792"/>
    <path id="Path_6436" data-name="Path 6436" d="M34.18,30.874V28.087A5.573,5.573,0,0,0,30,22.7" transform="translate(-2.027 -1.294)" fill="#00c792"/>
    <path id="Path_6437" data-name="Path 6437" d="M24,4.7a5.573,5.573,0,0,1,0,10.8" transform="translate(-1.6 -0.014)" fill="#00c792"/>
  </g>
</svg>