<svg xmlns="http://www.w3.org/2000/svg" width="32.653" height="27.115" viewBox="0 0 32.653 27.115">
  <g id="Icon_feather-users" data-name="Icon feather-users" transform="translate(-0.5 -3.464)">
    <path id="Path_6434" data-name="Path 6434" d="M23.793,30.86V28.073A5.573,5.573,0,0,0,18.22,22.5H7.073A5.573,5.573,0,0,0,1.5,28.073V30.86" transform="translate(0 -1.28)" fill="none" stroke="#000" stroke-linecap="round" stroke-linejoin="round" stroke-width="2"/>
    <path id="Path_6435" data-name="Path 6435" d="M18.647,10.073A5.573,5.573,0,1,1,13.073,4.5,5.573,5.573,0,0,1,18.647,10.073Z" transform="translate(-0.427 0)" fill="none" stroke="#000" stroke-linecap="round" stroke-linejoin="round" stroke-width="2"/>
    <path id="Path_6436" data-name="Path 6436" d="M34.18,30.874V28.087A5.573,5.573,0,0,0,30,22.7" transform="translate(-2.027 -1.294)" fill="none" stroke="#000" stroke-linecap="round" stroke-linejoin="round" stroke-width="2"/>
    <path id="Path_6437" data-name="Path 6437" d="M24,4.7a5.573,5.573,0,0,1,0,10.8" transform="translate(-1.6 -0.014)" fill="none" stroke="#000" stroke-linecap="round" stroke-linejoin="round" stroke-width="2"/>
  </g>
</svg>