<svg xmlns="http://www.w3.org/2000/svg" width="19" height="19" viewBox="0 0 19 19">
  <path id="Icon_awesome-basketball-ball" data-name="Icon awesome-basketball-ball" d="M8.132.651A9.444,9.444,0,0,0,3.451,2.711L6.416,5.676A8.532,8.532,0,0,0,8.132.651ZM9.5,8.76l6.049-6.049A9.468,9.468,0,0,0,9.975.563,10.337,10.337,0,0,1,7.726,6.986ZM2.149,4.014A9.444,9.444,0,0,0,.088,8.695,8.523,8.523,0,0,0,5.114,6.979Zm10.427,7.822A10.367,10.367,0,0,1,19,9.587a9.468,9.468,0,0,0-2.149-5.574L10.8,10.062l1.774,1.774ZM9.5,11.365,3.451,17.414a9.493,9.493,0,0,0,5.574,2.149,10.367,10.367,0,0,1,2.249-6.424Zm7.351,4.746a9.444,9.444,0,0,0,2.061-4.681,8.566,8.566,0,0,0-5.026,1.716ZM6.424,8.289A10.315,10.315,0,0,1,0,10.537a9.468,9.468,0,0,0,2.149,5.574L8.2,10.062Zm4.444,11.185a9.444,9.444,0,0,0,4.681-2.061l-2.965-2.965A8.575,8.575,0,0,0,10.868,19.474Z" transform="translate(0 -0.563)" fill="#00c792"/>
</svg>