<svg xmlns="http://www.w3.org/2000/svg" width="17.905" height="17.886" viewBox="0 0 17.905 17.886">
  <g id="pencil_1_" data-name="pencil (1)" transform="translate(0 -0.247)">
    <path id="Path_6664" data-name="Path 6664" d="M11.057,82.473,1.205,92.325a.393.393,0,0,0-.1.18L.011,96.888a.388.388,0,0,0,.376.482.385.385,0,0,0,.094-.012l4.383-1.092a.387.387,0,0,0,.18-.1L14.9,86.312Zm0,0" transform="translate(0 -79.237)" fill="#fff"/>
    <path id="Path_6665" data-name="Path 6665" d="M339.511,1.893l-1.1-1.1a1.986,1.986,0,0,0-2.743,0l-1.343,1.343,3.839,3.839,1.343-1.343a1.94,1.94,0,0,0,0-2.742Zm0,0" transform="translate(-322.174 0)" fill="#fff"/>
  </g>
</svg>
