<svg xmlns="http://www.w3.org/2000/svg" width="18.253" height="18.254" viewBox="0 0 18.253 18.254">
  <g id="cancel" transform="translate(-35 -35)">
    <path id="Path_6457" data-name="Path 6457" d="M44.124,53.254a9.1,9.1,0,1,1,3.494-.691A9.1,9.1,0,0,1,44.124,53.254Zm0-16.793a7.618,7.618,0,1,0,2.936.58,7.615,7.615,0,0,0-2.936-.58Z" transform="translate(0 0)" fill="#ff5c5c"/>
    <path id="Path_6458" data-name="Path 6458" d="M163.732,170.8a.73.73,0,0,1-.516-1.247l6.2-6.2a.73.73,0,1,1,1.033,1.033l-6.2,6.2a.725.725,0,0,1-.516.214Z" transform="translate(-122.706 -122.839)" fill="#ff5c5c"/>
    <path id="Path_6459" data-name="Path 6459" d="M169.961,170.8a.728.728,0,0,1-.516-.214l-6.2-6.2a.73.73,0,1,1,1.033-1.033l6.2,6.2a.73.73,0,0,1-.516,1.247Z" transform="translate(-122.738 -122.839)" fill="#ff5c5c"/>
  </g>
</svg>
