<svg xmlns="http://www.w3.org/2000/svg" width="18.13" height="14.504" viewBox="0 0 18.13 14.504">
  <path id="settings-sliders" d="M16.5,11.252A3.626,3.626,0,1,0,12.992,6.72H2.907a.907.907,0,0,0,0,1.813H12.992A3.628,3.628,0,0,0,16.5,11.252ZM14.691,7.626A1.813,1.813,0,1,0,16.5,5.813,1.813,1.813,0,0,0,14.691,7.626ZM2,14.878a3.627,3.627,0,0,1,7.138-.907H19.224a.907.907,0,1,1,0,1.813H9.138A3.627,3.627,0,0,1,2,14.878Zm5.439,0a1.813,1.813,0,1,0-1.813,1.813A1.813,1.813,0,0,0,7.439,14.878Z" transform="translate(-2 -4)" fill="#fff" fill-rule="evenodd"/>
</svg>