<svg xmlns="http://www.w3.org/2000/svg" xmlns:xlink="http://www.w3.org/1999/xlink" width="68.966" height="65.908" viewBox="0 0 68.966 65.908">
  <defs>
    <linearGradient id="linear-gradient" x1="0.5" x2="0.5" y2="1" gradientUnits="objectBoundingBox">
      <stop offset="0" stop-color="#00c792"/>
      <stop offset="0.499" stop-color="#53cdac"/>
      <stop offset="1" stop-color="#51f7cb"/>
    </linearGradient>
    <linearGradient id="linear-gradient-6" x1="0.5" x2="0.5" y2="1" gradientUnits="objectBoundingBox">
      <stop offset="0" stop-color="#5d5d5d"/>
      <stop offset="1" stop-color="#252525"/>
    </linearGradient>
  </defs>
  <g id="Group_1812" data-name="Group 1812" transform="translate(-321 -222.385)">
    <ellipse id="Ellipse_182" data-name="Ellipse 182" cx="25.483" cy="23.954" rx="25.483" ry="23.954" transform="translate(330 231.385)" fill="#b7b7b7" opacity="0.75"/>
    <g id="Group_1800" data-name="Group 1800" transform="translate(329 224.675)">
      <path id="Path_6631" data-name="Path 6631" d="M3657.3,913.008a3.16,3.16,0,0,1-.108-.5,21.677,21.677,0,0,1,5.067-16.838,32.841,32.841,0,0,0,.137,5.328c-.126,2.466-1.656,5.189-2.468,7.541a33.211,33.211,0,0,0-1.071,4.114A6.582,6.582,0,0,0,3657.3,913.008Z" transform="translate(-3656.977 -885.405)" fill="url(#linear-gradient)"/>
      <path id="Path_6632" data-name="Path 6632" d="M3660.362,1085.128a6.573,6.573,0,0,1,1.557-.357,3.494,3.494,0,0,0,.594.361l.105.072c-.2,1.5,4.225,6.8,5.351,8.227,1.954-.022,3.938-.11,5.888-.041-1.889.143-3.771.15-5.664.159a58.921,58.921,0,0,0,.387,6.927C3663.9,1096.588,3661.5,1090.795,3660.362,1085.128Z" transform="translate(-3660.043 -1057.526)" fill="#004331"/>
      <path id="Path_6633" data-name="Path 6633" d="M3712.54,811.075l-.058-.22c1.431-2.735,7.885-6.971,10.915-8.127l.826,1.142c.027,1.135,2.791,4.239,2.416,4.8-.185.275-.127.164-.187.51l.03.052c-1.015,1.915-2.416,4.933-3.809,6.548l-.372.112c-.483.589-.648,1.011-1.491,1.1-1.4.144-6.639.734-7.786.271l-.025-.874-.155-.119-.167.137A32.842,32.842,0,0,1,3712.54,811.075Z" transform="translate(-3707.263 -800.813)" fill="#004331"/>
      <path id="Path_6634" data-name="Path 6634" d="M3749.315,1180.733h1.8a50.783,50.783,0,0,0,6.155,4.63l.1-.014a27.358,27.358,0,0,0,3.767,1.776,29.69,29.69,0,0,0-.063,4.466c-.063.275-.028.512-.29.676-1.63,1.023-4.443.876-6.309,1.1-1.066-.756-5.273-1.854-7.368-3.205a8.006,8.006,0,0,1-3.069-2.346,58.864,58.864,0,0,1-.386-6.927C3745.544,1180.883,3747.427,1180.877,3749.315,1180.733Z" transform="translate(-3735.501 -1144.869)" fill="url(#linear-gradient)"/>
      <path id="Path_6635" data-name="Path 6635" d="M3790.663,1232.127a27.3,27.3,0,0,0,3.766,1.777,29.721,29.721,0,0,0-.062,4.466c-.063.275-.028.512-.291.676-1.63,1.023-4.443.876-6.309,1.1-1.067-.756-5.273-1.854-7.369-3.205a13.124,13.124,0,0,0,4.47-.69c2.207-.74,4.637-2.037,5.69-4.112Z" transform="translate(-3768.793 -1191.647)" fill="#189f7b"/>
      <path id="Path_6636" data-name="Path 6636" d="M3680.465,948.662l.167-.137.155.119.025.874c1.146.463,6.386-.127,7.786-.271.843-.087,1.009-.508,1.491-1.1l.372-.112c-.271.524-.754,1.144-.613,1.738.466,1.967,3.8,6.833,5.071,8.741,3.48.074,6.968-.074,10.443.029a16.253,16.253,0,0,1,1.241-1.967l.587.062c-.317.483-1.262,1.634-1.194,2.192a1.752,1.752,0,0,0,.074.261c1.906,3.053,3.621,6.225,5.378,9.358l2.089-.058c.958.006,2.152-.171,2.908.478-1.6.1-3.191.219-4.791.229a60.328,60.328,0,0,1-10.543,6.115,27.95,27.95,0,0,1-.215,4.506l-.271.072a29.623,29.623,0,0,1,.063-4.465,27.29,27.29,0,0,1-3.766-1.777l-.1.015a50.761,50.761,0,0,1-6.155-4.63h-1.8c-1.95-.069-3.935.019-5.889.041-1.126-1.428-5.546-6.726-5.351-8.227l-.106-.072a3.5,3.5,0,0,1-.594-.36A33.252,33.252,0,0,1,3678,956.2C3678.808,953.851,3680.339,951.128,3680.465,948.662Z" transform="translate(-3675.05 -933.072)" fill="#004331"/>
      <path id="Path_6637" data-name="Path 6637" d="M3686.406,967.03c2.752-.13,5.617-.537,8.358-.437a83.367,83.367,0,0,0,5.248,8.9c-1.094,3.3-2.668,6.431-3.656,9.779q-3.791.1-7.583.1c-2.118-2.449-3.6-5.195-5.522-7.748l-.105-.072C3682.975,974.225,3684.975,970.045,3686.406,967.03Z" transform="translate(-3680.675 -949.947)" fill="url(#linear-gradient)"/>
      <path id="Path_6638" data-name="Path 6638" d="M3815.428,783.322a30.16,30.16,0,0,1,14.669-1.629,15.708,15.708,0,0,1,4.512,1.113c.314.145.519.23.646.552a37.619,37.619,0,0,1,5.152,2.708c.678.423,1.4,1.022,2.1,1.376.8.789,2.607,1.938,3.039,2.891-.319,2.512-.44,5.1-.95,7.58a22.438,22.438,0,0,1,4.264,8.431l-.5-.088c.619,2.478-1.739,5.745-3.046,7.765q-.791,1.208-1.653,2.371a47.041,47.041,0,0,1-5.892.337l-2.088.058c-1.758-3.133-3.473-6.305-5.379-9.358a1.718,1.718,0,0,1-.073-.261c-.068-.558.875-1.709,1.193-2.192l-.587-.062a16.312,16.312,0,0,0-1.241,1.966c-3.476-.1-6.962.044-10.442-.029-1.274-1.907-4.6-6.774-5.071-8.741-.14-.593.342-1.214.614-1.738,1.393-1.615,2.793-4.632,3.809-6.548l-.03-.052c.06-.347,0-.235.187-.51.375-.56-2.388-3.663-2.416-4.8Z" transform="translate(-3799.294 -781.407)" fill="#004331"/>
      <path id="Path_6639" data-name="Path 6639" d="M3828.556,783.322a30.159,30.159,0,0,1,14.669-1.629,15.708,15.708,0,0,1,4.512,1.113c.314.145.519.23.646.552q-3,2.78-6.179,5.383c-3.27-.028-6.66-.214-9.914.068a30.833,30.833,0,0,0-2.909-4.344Z" transform="translate(-3812.422 -781.407)" fill="url(#linear-gradient)"/>
      <path id="Path_6640" data-name="Path 6640" d="M3991.292,967.344l8.787.112a34.1,34.1,0,0,1,4.074,8.037c.619,2.478-1.738,5.745-3.045,7.765q-.791,1.208-1.654,2.371a47.05,47.05,0,0,1-5.891.337l-2.088.058c-1.758-3.133-3.473-6.305-5.379-9.358a1.717,1.717,0,0,1-.073-.261c-.069-.558.875-1.709,1.193-2.192C3988.553,971.963,3989.737,969.449,3991.292,967.344Z" transform="translate(-3955.077 -950.645)" fill="#189f7b"/>
      <path id="Path_6641" data-name="Path 6641" d="M3818.514,867.179c1.844-1.223,7.806-.66,10.222-.626a36.408,36.408,0,0,1,6.1,8.512q-1.925,3.638-3.992,7.2a16.318,16.318,0,0,0-1.241,1.967c-3.476-.1-6.962.044-10.442-.029-1.274-1.907-4.6-6.774-5.071-8.741-.14-.593.342-1.214.614-1.738C3816.1,872.112,3817.5,869.094,3818.514,867.179Z" transform="translate(-3799.294 -858.761)" fill="url(#linear-gradient)"/>
      <path id="Path_6643" data-name="Path 6643" d="M3865.628,1300.832c.018.278-.059.654.172.853,1.089.938,5.876.946,7.489,1.262-2.013,1-10.519.549-13.005.253a4.142,4.142,0,0,1-1.526-.517c1.866-.227,4.679-.081,6.309-1.1.263-.165.229-.4.291-.676Z" transform="translate(-3839.783 -1254.182)" fill="url(#linear-gradient-6)"/>
      <path id="Path_6644" data-name="Path 6644" d="M4139.756,880.792c3.869,4.763,5.214,10.363,6.32,16.169-.813.234-1.977.74-2.78.41l-.225-.568a22.464,22.464,0,0,0-4.264-8.431C4139.317,885.891,4139.439,883.3,4139.756,880.792Z" transform="translate(-4093.498 -871.866)" fill="#189f7b"/>
      <path id="Path_6645" data-name="Path 6645" d="M4077.336,1058.168l.225.568c.8.329,1.967-.176,2.781-.41a22.591,22.591,0,0,1-7.043,17.19c-.058.057-.117.113-.176.17-.3-2.234-.654-4.438-1.079-6.654q-1.444.037-2.887,0c-.756-.65-1.95-.472-2.908-.478a47.034,47.034,0,0,0,5.891-.337q.863-1.163,1.655-2.371c1.307-2.02,3.664-5.287,3.045-7.765Z" transform="translate(-4027.764 -1033.232)" fill="#004331"/>
      <path id="Path_6646" data-name="Path 6646" d="M3947.371,1180.015q1.444.037,2.887,0c.425,2.216.778,4.42,1.079,6.654-1.593,2.345-8.008,5.7-10.9,6.3a1.85,1.85,0,0,1-.953.017c-1.613-.316-6.4-.324-7.489-1.262-.232-.2-.155-.576-.171-.853a27.979,27.979,0,0,0,.215-4.506,60.351,60.351,0,0,0,10.542-6.116C3944.179,1180.234,3945.775,1180.115,3947.371,1180.015Z" transform="translate(-3905.977 -1144.215)" fill="#189f7b"/>
    </g>
  </g>
</svg>
