<svg xmlns="http://www.w3.org/2000/svg" width="33.99" height="33.99" viewBox="0 0 33.99 33.99">
  <g id="Icon_feather-image" data-name="Icon feather-image" transform="translate(1 1)">
    <path id="Path_1086" data-name="Path 1086" d="M8.008,4.5H32.567a3.508,3.508,0,0,1,3.508,3.508V32.567a3.508,3.508,0,0,1-3.508,3.508H8.008A3.508,3.508,0,0,1,4.5,32.567V8.008A3.508,3.508,0,0,1,8.008,4.5Z" transform="translate(-4.5 -4.5)" fill="none" stroke="#00c792" stroke-linecap="round" stroke-linejoin="round" stroke-width="2"/>
    <path id="Path_1087" data-name="Path 1087" d="M15.763,13.131A2.631,2.631,0,1,1,13.131,10.5,2.631,2.631,0,0,1,15.763,13.131Z" transform="translate(-3.483 -3.483)" fill="none" stroke="#00c792" stroke-linecap="round" stroke-linejoin="round" stroke-width="2"/>
    <path id="Path_1088" data-name="Path 1088" d="M35.567,23.771,26.8,15,7.5,34.3" transform="translate(-3.992 -2.721)" fill="none" stroke="#00c792" stroke-linecap="round" stroke-linejoin="round" stroke-width="2"/>
  </g>
</svg>
