<svg xmlns="http://www.w3.org/2000/svg" width="12.607" height="15.714" viewBox="0 0 12.607 15.714">
  <path id="Icon_ionic-ios-lock" data-name="Icon ionic-ios-lock" d="M17.781,8.814h-.946V7.05A3.785,3.785,0,0,0,9.271,7V8.814H8.326A1.549,1.549,0,0,0,6.75,10.325v7.252a1.549,1.549,0,0,0,1.576,1.511h9.456a1.549,1.549,0,0,0,1.576-1.511V10.325A1.549,1.549,0,0,0,17.781,8.814Zm-4.176,4.714v2.6a.551.551,0,0,1-.524.544.543.543,0,0,1-.579-.529V13.528a1.2,1.2,0,0,1-.705-1.2,1.265,1.265,0,0,1,2.518.11A1.2,1.2,0,0,1,13.605,13.528Zm2.128-4.714H10.375V7a2.5,2.5,0,0,1,.788-1.813,2.745,2.745,0,0,1,3.782,0A2.5,2.5,0,0,1,15.733,7Z" transform="translate(-6.75 -3.374)" fill="#00c792"/>
</svg>