<svg id="Group_1647" data-name="Group 1647" xmlns="http://www.w3.org/2000/svg" width="29.952" height="30" viewBox="0 0 29.952 30">
  <g id="Group_1646" data-name="Group 1646" transform="translate(0 0)">
    <path id="Path_6461" data-name="Path 6461" d="M651.482,490.042,650.1,487.4h0l-.072.027-.008,0c-.582.221-1.185.464-1.793.722l1.383,2.628,1.194,2.269.263.5h2.254l-1.181-2.255Z" transform="translate(-628.949 -471.471)" fill="#00c792"/>
    <path id="Path_6462" data-name="Path 6462" d="M245.335,148.4c-.1,0-.213,0-.332.009a12.983,12.983,0,0,1-.694,2.482,13.164,13.164,0,0,1-4.619,5.921,13.054,13.054,0,0,1-15.169,0,13.087,13.087,0,1,1,20.073-14.622,18.336,18.336,0,0,0-3.626.517q-.444.105-.924.239a28.381,28.381,0,0,0-2.75.925h0c-.194.076-.391.155-.591.238s-.387.164-.584.25q-.336.147-.682.307c-.189.088-.38.178-.573.271s-.377.185-.568.282h0q-1.238.627-2.588,1.434c-1.278.766-2.626,1.657-4.041,2.7q-.549.406-1.11.841l-.082.063,0,0-.084.064,5.676-10.695,2.5,4.75h0l.019-.009c.185-.09.371-.174.556-.26q.342-.159.682-.309c.195-.086.39-.172.583-.253h0l-3.605-6.882-.734-1.4-.748,1.408-7.5,14.125-1.288,2.425h2.324l.189-.12.358-.223c.189-.117.421-.259.695-.425,1.407-.85,3.879-2.286,6.722-3.686.867-.427,1.767-.85,2.683-1.253h0q.291-.128.583-.253c.2-.083.392-.163.588-.244q.345-.142.691-.279c.2-.078.4-.157.594-.232s.4-.149.6-.221h0c.972-.351,1.935-.657,2.868-.9l.151-.037a16.177,16.177,0,0,1,3.56-.538,7.581,7.581,0,0,1,1.921.188q-.054-.707-.171-1.395a15.017,15.017,0,0,0-12.854-12.334,14.989,14.989,0,1,0,11.395,21.754,14.877,14.877,0,0,0,1.434-4.215,2.4,2.4,0,0,0-1.177-.4C245.578,148.406,245.465,148.4,245.335,148.4Z" transform="translate(-217.105 -131.143)" fill="#00c792"/>
  </g>
</svg>