<svg xmlns="http://www.w3.org/2000/svg" xmlns:xlink="http://www.w3.org/1999/xlink" width="205.157" height="184.711" viewBox="0 0 205.157 184.711">
  <defs>
    <linearGradient id="linear-gradient" x1="0.5" x2="0.5" y2="1" gradientUnits="objectBoundingBox">
      <stop offset="0" stop-color="#00c792"/>
      <stop offset="1" stop-color="#fff"/>
    </linearGradient>
    <clipPath id="clip-path">
      <path id="Path_6679" data-name="Path 6679" d="M400.113,292.406c3.515-1.3,7.743,1.325,9.426,5.86s.192,9.286-3.323,10.59-7.743-1.325-9.426-5.86-.192-9.286,3.323-10.59" transform="translate(-396.098 -292.072)" fill="none"/>
    </clipPath>
  </defs>
  <g id="Group_1816" data-name="Group 1816" transform="translate(-111.421 -77.531)">
    <g id="Group_1707" data-name="Group 1707" transform="translate(111.421 86.009)">
      <path id="Path_6671" data-name="Path 6671" d="M230.775,423.271a17.131,17.131,0,0,1-15.32,8.217c-3.2-.093-8.411-.215-13.023-.188-11.011.065-17.58-16.957-3.328-19.708,12.512-2.415,10.4-5.991,15.659-8.428a12.876,12.876,0,0,1,17.781,8.624,15.018,15.018,0,0,1-1.284,10.6l-.039.075Q231.008,422.875,230.775,423.271Z" transform="translate(-123.846 -255.263)" fill="url(#linear-gradient)"/>
      <path id="Path_6672" data-name="Path 6672" d="M86.385,274.443c-20.224-21.756-19.557-57.788-.556-80.618a59.57,59.57,0,0,1,44.742-21.577c7.466-.154,14.672-3.383,18.953-9.5,5.881-8.4,12.566-18.206,26.156-20.078,15.293-2.106,28.568,8.2,34.624,19.845,5.728,11.015,12.743,13.516,20.8,18.163a60.1,60.1,0,0,1,14.525,11.742A59.267,59.267,0,0,1,246.916,271c-15.785,18.656-42.575,30.557-61.968,18.958-16.9-10.109-23.836-7.072-37.736-.2C127.034,299.728,104.565,294,86.385,274.443Z" transform="translate(-71.398 -141.365)" fill="url(#linear-gradient)"/>
      <ellipse id="Ellipse_179" data-name="Ellipse 179" cx="13.385" cy="13.385" rx="13.385" ry="13.385" transform="translate(48.977)" fill="url(#linear-gradient)"/>
    </g>
    <g id="Group_1748" data-name="Group 1748" transform="translate(197.935 161.048)">
      <g id="Group_1735" data-name="Group 1735" transform="translate(79.412)">
        <path id="Path_6673" data-name="Path 6673" d="M418.623,337.262l-1.741.646,3.167,8.535,1.741-.646,1.741-.646-3.167-8.535Z" transform="translate(-404.269 -310.666)" fill="#acb3d8"/>
        <path id="Path_6674" data-name="Path 6674" d="M423.644,352.239l-2.535.941.589,1.586,2.535-.941,2.535-.941-.589-1.586Z" transform="translate(-406.123 -317.107)" fill="#070540"/>
        <path id="Path_6675" data-name="Path 6675" d="M417.258,334.319l-2.146.8.589,1.586,2.146-.8,2.146-.8-.589-1.586Z" transform="translate(-403.492 -309.309)" fill="#070540"/>
        <g id="Group_1734" data-name="Group 1734">
          <g id="Group_1708" data-name="Group 1708" transform="translate(0.641 11.906)">
            <path id="Path_6676" data-name="Path 6676" d="M395.561,311.6l-.01-.01c.017.046.036.089.053.135Z" transform="translate(-395.551 -311.594)" fill="#6b78b7"/>
          </g>
          <path id="Path_6677" data-name="Path 6677" d="M409.839,297.63c-.048-.145-.1-.291-.152-.436-1.867-5.034-6.633-7.908-10.645-6.419s-5.75,6.776-3.882,11.809c.053.145.111.287.169.429l-.009,0c2.727,7.351,9.255,7.668,11.248,12.972l.905-.336-.38-.836c-1.084-2.18-2.876-3.507-4.761-4.9-.46-.341-.923-.685-1.381-1.045a6.5,6.5,0,0,0,8.446-3.134c-.112.572-.239,1.135-.366,1.693-.518,2.287-1.011,4.462-.411,6.821l.263.879.9-.333c-1.949-5.32,2.792-9.819.065-17.17Zm-4.364,10.484c-3.515,1.3-7.743-1.325-9.426-5.86s-.192-9.286,3.323-10.59,7.743,1.325,9.426,5.86S408.99,306.81,405.475,308.114Z" transform="translate(-394.41 -290.383)" fill="#6b78b7"/>
          <path id="Path_6678" data-name="Path 6678" d="M421.431,302.005l0-.013c.017.046.03.091.047.136C421.464,302.087,421.447,302.046,421.431,302.005Z" transform="translate(-406.264 -295.476)" fill="#6b78b7"/>
          <g id="Group_1733" data-name="Group 1733" transform="translate(0.948 0.948)">
            <g id="Group_1732" data-name="Group 1732" clip-path="url(#clip-path)">
              <g id="Group_1731" data-name="Group 1731" transform="translate(-2.593 -5.072)">
                <g id="Group_1709" data-name="Group 1709" transform="translate(0 4.247)">
                  <rect id="Rectangle_1032" data-name="Rectangle 1032" width="15.283" height="0.35" transform="matrix(0.938, -0.348, 0.348, 0.938, 0, 5.316)" fill="#070540"/>
                </g>
                <g id="Group_1710" data-name="Group 1710" transform="translate(0.408 5.346)">
                  <rect id="Rectangle_1033" data-name="Rectangle 1033" width="15.283" height="0.35" transform="matrix(0.938, -0.348, 0.348, 0.938, 0, 5.316)" fill="#070540"/>
                </g>
                <g id="Group_1711" data-name="Group 1711" transform="translate(0.815 6.444)">
                  <rect id="Rectangle_1034" data-name="Rectangle 1034" width="15.283" height="0.35" transform="translate(0 5.316) rotate(-20.356)" fill="#070540"/>
                </g>
                <g id="Group_1712" data-name="Group 1712" transform="translate(1.223 7.543)">
                  <rect id="Rectangle_1035" data-name="Rectangle 1035" width="15.283" height="0.35" transform="matrix(0.938, -0.348, 0.348, 0.938, 0, 5.316)" fill="#070540"/>
                </g>
                <g id="Group_1713" data-name="Group 1713" transform="translate(1.63 8.642)">
                  <rect id="Rectangle_1036" data-name="Rectangle 1036" width="15.283" height="0.35" transform="matrix(0.938, -0.348, 0.348, 0.938, 0, 5.316)" fill="#070540"/>
                </g>
                <g id="Group_1714" data-name="Group 1714" transform="translate(2.038 9.74)">
                  <rect id="Rectangle_1037" data-name="Rectangle 1037" width="15.283" height="0.35" transform="translate(0 5.316) rotate(-20.355)" fill="#070540"/>
                </g>
                <g id="Group_1715" data-name="Group 1715" transform="translate(2.445 10.839)">
                  <rect id="Rectangle_1038" data-name="Rectangle 1038" width="15.283" height="0.35" transform="translate(0 5.316) rotate(-20.356)" fill="#070540"/>
                </g>
                <g id="Group_1716" data-name="Group 1716" transform="translate(2.853 11.937)">
                  <rect id="Rectangle_1039" data-name="Rectangle 1039" width="15.283" height="0.35" transform="matrix(0.938, -0.348, 0.348, 0.938, 0, 5.316)" fill="#070540"/>
                </g>
                <g id="Group_1717" data-name="Group 1717" transform="translate(3.26 13.036)">
                  <rect id="Rectangle_1040" data-name="Rectangle 1040" width="15.283" height="0.35" transform="matrix(0.938, -0.348, 0.348, 0.938, 0, 5.316)" fill="#070540"/>
                </g>
                <g id="Group_1718" data-name="Group 1718" transform="translate(3.668 14.134)">
                  <rect id="Rectangle_1041" data-name="Rectangle 1041" width="15.283" height="0.35" transform="matrix(0.938, -0.348, 0.348, 0.938, 0, 5.316)" fill="#070540"/>
                </g>
                <g id="Group_1719" data-name="Group 1719" transform="translate(4.076 15.233)">
                  <rect id="Rectangle_1042" data-name="Rectangle 1042" width="15.283" height="0.35" transform="translate(0 5.316) rotate(-20.356)" fill="#070540"/>
                </g>
                <g id="Group_1720" data-name="Group 1720" transform="translate(4.483 16.332)">
                  <rect id="Rectangle_1043" data-name="Rectangle 1043" width="15.283" height="0.35" transform="translate(0 5.316) rotate(-20.355)" fill="#070540"/>
                </g>
                <g id="Group_1721" data-name="Group 1721" transform="translate(4.891 17.43)">
                  <rect id="Rectangle_1044" data-name="Rectangle 1044" width="15.283" height="0.35" transform="matrix(0.938, -0.348, 0.348, 0.938, 0, 5.316)" fill="#070540"/>
                </g>
                <g id="Group_1722" data-name="Group 1722" transform="translate(0.288 3.545)">
                  <rect id="Rectangle_1045" data-name="Rectangle 1045" width="0.35" height="24.861" transform="translate(0 0.122) rotate(-20.354)" fill="#070540"/>
                </g>
                <g id="Group_1723" data-name="Group 1723" transform="translate(1.482 3.101)">
                  <rect id="Rectangle_1046" data-name="Rectangle 1046" width="0.35" height="24.861" transform="translate(0 0.122) rotate(-20.354)" fill="#070540"/>
                </g>
                <g id="Group_1724" data-name="Group 1724" transform="translate(2.676 2.659)">
                  <rect id="Rectangle_1047" data-name="Rectangle 1047" width="0.35" height="24.861" transform="matrix(0.938, -0.348, 0.348, 0.938, 0, 0.122)" fill="#070540"/>
                </g>
                <g id="Group_1725" data-name="Group 1725" transform="translate(3.87 2.215)">
                  <rect id="Rectangle_1048" data-name="Rectangle 1048" width="0.35" height="24.861" transform="translate(0 0.122) rotate(-20.354)" fill="#070540"/>
                </g>
                <g id="Group_1726" data-name="Group 1726" transform="translate(5.064 1.773)">
                  <rect id="Rectangle_1049" data-name="Rectangle 1049" width="0.35" height="24.861" transform="translate(0 0.122) rotate(-20.357)" fill="#070540"/>
                </g>
                <g id="Group_1727" data-name="Group 1727" transform="translate(6.258 1.33)">
                  <rect id="Rectangle_1050" data-name="Rectangle 1050" width="0.35" height="24.861" transform="matrix(0.938, -0.348, 0.348, 0.938, 0, 0.122)" fill="#070540"/>
                </g>
                <g id="Group_1728" data-name="Group 1728" transform="translate(7.452 0.887)">
                  <rect id="Rectangle_1051" data-name="Rectangle 1051" width="0.35" height="24.861" transform="matrix(0.938, -0.348, 0.348, 0.938, 0, 0.122)" fill="#070540"/>
                </g>
                <g id="Group_1729" data-name="Group 1729" transform="translate(8.647 0.443)">
                  <rect id="Rectangle_1052" data-name="Rectangle 1052" width="0.35" height="24.861" transform="translate(0 0.122) rotate(-20.354)" fill="#070540"/>
                </g>
                <g id="Group_1730" data-name="Group 1730" transform="translate(9.842 0)">
                  <rect id="Rectangle_1053" data-name="Rectangle 1053" width="0.35" height="24.861" transform="translate(0 0.122) rotate(-20.349)" fill="#070540"/>
                </g>
              </g>
            </g>
          </g>
        </g>
      </g>
      <g id="Group_1744" data-name="Group 1744" transform="translate(0 53.691)">
        <g id="Group_1737" data-name="Group 1737" transform="translate(0 24.191)">
          <path id="Path_6680" data-name="Path 6680" d="M307.067,431.212s-1.061,2.627-1.97,2.627-3.485-.9-5.809-.7-11.617,4.947-16.365,4.9l-3.334,7.677a65.9,65.9,0,0,1,11.112-3.232c4.8-.758,18.739-1.111,21.012-1.92s7.071-11.415,7.071-11.415Z" transform="translate(-264.624 -429.141)" fill="#ffd2b3"/>
          <path id="Path_6681" data-name="Path 6681" d="M327.86,431.212a11.16,11.16,0,0,1-.875,1.686c.648-.2,2.238.638,4.006,2.43,1.342,1.361,2.675,2.475,4.116,2.291a82.152,82.152,0,0,0,4.47-8.478Z" transform="translate(-285.417 -429.141)" fill="#ffb98b"/>
          <path id="Path_6682" data-name="Path 6682" d="M282.263,442.7s2.289.707,9.152-2.182c0,0,3.576,2.856,1.387,6.829a51.9,51.9,0,0,0-7.812,1.751c-3.1,1.077-6.061,1.953-6.061,1.953Z" transform="translate(-264.335 -434.134)" fill="#e6e8f4"/>
          <g id="Group_1736" data-name="Group 1736" transform="translate(0 5.305)">
            <path id="Path_6683" data-name="Path 6683" d="M271.265,441.649s2.306,1.684,2.374,3.5c.059,1.6-1.776,2.231-2.534,3.8s-.076,2.348-2.248,3.106-4.293.278-7.147,1.894-6.238,0-6.238,0Z" transform="translate(-254.043 -439.933)" fill="#070540"/>
            <path id="Path_6684" data-name="Path 6684" d="M260.534,451.5c4.043-2.775,4.521-4.824,6.263-5.985s3.889-3.106,3.637-4.824c-.067-.455-1.223-1.425-1.523-1.631-.833-.573-15.409,12.79-15.4,13.555a13.232,13.232,0,0,0,1.161.757C255.78,453.822,258.227,453.087,260.534,451.5Z" transform="translate(-253.185 -438.791)" fill="#e6e8f4"/>
            <path id="Path_6685" data-name="Path 6685" d="M259.33,450.663c4.043-2.774,4.521-4.824,6.263-5.986s3.889-3.106,3.637-4.824-2.475-1.595-4.344-.153-1.364,2.78-4.9,3.891a10.744,10.744,0,0,0-6.213,5.4c-.361.681-1.258,2.743-.631,3.334C254,453.141,256.755,452.431,259.33,450.663Z" transform="translate(-252.926 -438.592)" fill="#fff"/>
          </g>
        </g>
        <g id="Group_1741" data-name="Group 1741" transform="translate(74.297 5.587)">
          <g id="Group_1738" data-name="Group 1738">
            <path id="Path_6686" data-name="Path 6686" d="M385.3,406.433s7.34.067,9.5.4,3.569,5.051,5.522,6.465,5.859,2.424,9.9,7.61,3.771,5.792,3.771,5.792l6.061-.471s-20.541-25.658-22.224-27.005-10.169-3.232-10.169-3.232S385.9,404.615,385.3,406.433Z" transform="translate(-385.297 -395.995)" fill="#ffd2b3"/>
            <path id="Path_6687" data-name="Path 6687" d="M393.356,402.388c.312-1.143,1.251-3.5.722-4.71-2.945-.91-6.425-1.683-6.425-1.683s-1.751,8.62-2.357,10.438c0,0,3.3.03,6.121.152A17.082,17.082,0,0,0,393.356,402.388Z" transform="translate(-385.297 -395.995)" fill="#ffb98b"/>
          </g>
          <path id="Path_6688" data-name="Path 6688" d="M435.237,448.128c.752,1.237.659,1.448.659,1.448l6.061-.471-.783-.977Z" transform="translate(-407.207 -418.867)" fill="#ffd2b3"/>
          <path id="Path_6689" data-name="Path 6689" d="M421.434,430.179c-.09-.127,3.489-3.5,4.23-3.468s7.509,9.361,8.384,10.27-4.879,1.572-5.6,1.055-2.038-2.707-3.959-4.658C422.222,431.078,421.624,430.449,421.434,430.179Z" transform="translate(-401.15 -409.47)" fill="#e6e8f4"/>
          <g id="Group_1740" data-name="Group 1740" transform="translate(25.521 24.171)">
            <path id="Path_6690" data-name="Path 6690" d="M431.607,442.437a4.443,4.443,0,0,0,3.835.7c2.146-.657.42-2.533.315-3.4s.454-.916,1.254-.116c.864.865,8.381,4.3,10.25,4.725s2.4,1.718,2.324,2.273-4.041.985-8.132,1.238-10.329.177-10.581-.126S430.807,442.537,431.607,442.437Z" transform="translate(-430.766 -439.059)" fill="#070540"/>
            <g id="Group_1739" data-name="Group 1739" transform="translate(0.069 7.699)">
              <path id="Path_6691" data-name="Path 6691" d="M449.536,452.78l0,0c-.632.491-4.272.872-8.028,1.1-3.96.244-9.933.181-10.539-.1h0a1.472,1.472,0,0,0-.008.931c.252.3,6.456.439,10.548.187s8.057-.682,8.132-1.238A2.3,2.3,0,0,0,449.536,452.78Z" transform="translate(-430.889 -452.776)" fill="#e6e8f4"/>
            </g>
          </g>
        </g>
        <g id="Group_1743" data-name="Group 1743" transform="translate(41.567)">
          <path id="Path_6692" data-name="Path 6692" d="M328.735,390.685s-1.818,2.828-.74,8.149.337,12.873-1.01,14.08c0,0,1.953,2.228,5.994.876s6.8-3.17,9.226-3.372a66.648,66.648,0,0,0,.539-8.217s15.085,2.559,16.432,2.425,7.225-8.486,7.225-11.92c0,0-10.453-4.243-16.584-6.263S328.735,390.685,328.735,390.685Z" transform="translate(-326.984 -386.041)" fill="#5bcfde"/>
          <g id="Group_1742" data-name="Group 1742" transform="translate(0.669)" opacity="0.4" style="mix-blend-mode: multiply;isolation: isolate">
            <path id="Path_6693" data-name="Path 6693" d="M350.339,386.442c-6.131-2.021-21.082,4.243-21.082,4.243s-1.818,2.828-.74,8.149a27.915,27.915,0,0,1,.491,4.43c.788-3.131,23.921-1.467,23.265-16.163C351.6,386.864,350.946,386.642,350.339,386.442Z" transform="translate(-328.176 -386.041)" fill="#5bcfde"/>
            <path id="Path_6694" data-name="Path 6694" d="M349.745,419.876a40.6,40.6,0,0,0,.277-5.734s-4.125-.674-6.129-.876S350.008,417.394,349.745,419.876Z" transform="translate(-334.932 -397.982)" fill="#5bcfde"/>
          </g>
        </g>
      </g>
      <g id="Group_1745" data-name="Group 1745" transform="translate(75.693 27.846)">
        <path id="Path_6695" data-name="Path 6695" d="M390.548,344.875s12.247-1.086,13.307-1.414,3.056-3.081,3.41-3.333a10.3,10.3,0,0,1,3.216,0c.421.084.118,1.566.118,1.566a14.73,14.73,0,0,1,.758,2.6c0,.374-.37,1.389-.758,1.339s-.185-.539-.589-.623-.993,1.4-1.482,1.667a3.534,3.534,0,0,1-2.222.168c-1.078-.152-8.158,3.409-10.2,3.738s-7.778-.177-8.233-.177S388.831,345.03,390.548,344.875Z" transform="translate(-387.784 -339.993)" fill="#ffd2b3"/>
        <path id="Path_6696" data-name="Path 6696" d="M391.135,348.6l-.586.053c-1.718.155-3.133,5.531-2.678,5.531.214,0,1.609.113,3.235.2C390.871,353.976,391.843,351.487,391.135,348.6Z" transform="translate(-387.784 -343.767)" fill="#ffb98b"/>
        <path id="Path_6697" data-name="Path 6697" d="M426.235,345.633c.387.051.755-.965.758-1.339a14.731,14.731,0,0,0-.758-2.6s.3-1.482-.118-1.566a15.5,15.5,0,0,0-2.693-.112c.218-.015.906-.017.891.55a6.638,6.638,0,0,0,1.179,2.576,2,2,0,0,1-.2,2.082v0c.129-.148.25-.238.358-.216C426.05,345.094,425.848,345.582,426.235,345.633Z" transform="translate(-403.42 -339.994)" fill="#ffb98b"/>
      </g>
      <path id="Path_6698" data-name="Path 6698" d="M363.281,327.437c.139-.269,7.071-1.97,7.677-2.307s1.078-1.776,1.507-2.357,2.381-2.048,2.549-2.469.195-.755.515-.755c.36,0,.6.744.484,1.529s-1.233,1.707-1.359,1.948a17.2,17.2,0,0,1,2.963-.026c.442.164.234.617-.033.716-.432.159-2.53.257-2.644.4s3.1-.028,3.4.084a.444.444,0,0,1-.066.837c-.366.076-2.584.257-2.786.332s3.077-.093,3.456.008.366.783-.126.872-3.283.315-3.422.429,3.248.505,3.463.7.048.711-.457.762-3.005-.189-3.22-.152a11.6,11.6,0,0,1-2.69.8,9.044,9.044,0,0,0-1.275-.135c-1.792.325-6.956,2.811-7.262,2.811C363.61,331.461,362.99,328,363.281,327.437Z" transform="translate(-301.308 -303.178)" fill="#ff946e"/>
      <path id="Path_6699" data-name="Path 6699" d="M369.367,330.4c-2.235.634-5.984,1.6-6.087,1.8-.291.562.329,4.024.673,4.024.26,0,4.036-1.8,6.26-2.535A7.322,7.322,0,0,1,369.367,330.4Z" transform="translate(-301.308 -307.939)" fill="#f07d18"/>
      <g id="Group_1746" data-name="Group 1746" transform="translate(41.281 16.065)">
        <path id="Path_6700" data-name="Path 6700" d="M344.169,321.036a5.822,5.822,0,0,0-6.129-1.725c-3.67,1.245-5.387,6.3-5.488,13.006-.082,5.423.942,15.978-.573,19.463s-4.95,8.081-5.506,10.152c0,0,5.387,8.565,14.193,6.465,12.072-2.879,9.445-18.941,10.792-26.179,2.488.2,6.835,1.329,8.4,1.48s4.244-5.758,3.79-8.031a74.493,74.493,0,0,1-9.985-3.917,15.724,15.724,0,0,1-6.522-5.9Z" transform="translate(-326.474 -319.005)" fill="#6b78b7"/>
        <path id="Path_6701" data-name="Path 6701" d="M356.585,331.677c4.777,5.375,10.5,7.122,13.643,6.754-1.179-.491-2.267-.982-3.279-1.469a15.824,15.824,0,0,1-6.6-5.936l-.136-.219C359.876,331.194,356.473,331.551,356.585,331.677Z" transform="translate(-339.683 -324.183)" fill="#6b78b7" opacity="0.33" style="mix-blend-mode: multiply;isolation: isolate"/>
        <path id="Path_6702" data-name="Path 6702" d="M353.138,321.066a6.234,6.234,0,0,0-3.756-1.993c.993.189,1.725,2.361.2,2.682a6.332,6.332,0,0,0-2.563,1.032c1.807-.741,3.657-.816,2.747-.473s-1.467.958-1.182.9c1.71-.333,2.948.01,2.641.315a9.341,9.341,0,0,0,.748.992c.031,0,.836-1.13,1.7-2.354Z" transform="translate(-335.444 -319.035)" fill="#6b78b7" opacity="0.44" style="mix-blend-mode: multiply;isolation: isolate"/>
        <path id="Path_6703" data-name="Path 6703" d="M363.1,360.416c-.912.469,3.784,5.08,3.665,9.129.251-3.528.264-6.887.709-9.281C367.2,360.2,364.017,359.946,363.1,360.416Z" transform="translate(-342.493 -337.052)" fill="#6b78b7" style="mix-blend-mode: multiply;isolation: isolate"/>
      </g>
      <g id="Group_1747" data-name="Group 1747" transform="translate(56.935 11.168)">
        <path id="Path_6704" data-name="Path 6704" d="M354.5,326.113a2.779,2.779,0,0,0,1.909-1.16l7.672,3.864c-2.5-.281-4.031,1.848-4.587,2.475C358.724,332.156,353.471,328.2,354.5,326.113Z" transform="translate(-354.364 -316.718)" fill="#ffb98b"/>
        <path id="Path_6705" data-name="Path 6705" d="M358.981,319.214s-1.051,1.115-1.281,1.027-.558-.938-.624-1.132a5.074,5.074,0,0,0,.818-3.164,39.171,39.171,0,0,1-.176-5.5c.176-.442,8.709.1,9.216.377.271.148-.38,3.383-.29,3.817s-4.259,5.6-4.259,5.6Z" transform="translate(-355.553 -310.28)" fill="#070540"/>
        <path id="Path_6706" data-name="Path 6706" d="M360.78,319.35c-1,.044-.839,1.1-.652,1.684.257.8,1.071,1.568,1.509,1.073a9.691,9.691,0,0,0,.554,1.744c.354.778,3.889,2.31,4.832,1.815.708-.372.648-4.443.754-5.244s.5-1.214.507-1.556a21.748,21.748,0,0,0-.413-2.334c-.094-.448-1.073.436-2.369,0s-3.335-1.567-3.217-1.355c.086.155,1.885.942,1.991,1.3a12.393,12.393,0,0,1-.553,2.145c0,.236-.766.247-.849.5s-.165,1.815-.189,2-.637.083-.648-.082S361.865,319.3,360.78,319.35Z" transform="translate(-356.832 -312.417)" fill="#ffd2b3"/>
      </g>
    </g>
    <g id="Group_1767" data-name="Group 1767" transform="translate(154.077 77.531)">
      <path id="Path_6707" data-name="Path 6707" d="M177.68,287.281s1.045,2.7,11.088,5.583,11.424-3.146,11.424-3.146l-.339-6.836s-19.168-2.617-19.3-2.789S177.984,283.753,177.68,287.281Z" transform="translate(-176.057 -202.349)" fill="#acb3d8"/>
      <g id="Group_1751" data-name="Group 1751" transform="translate(1.075 113.355)">
        <path id="Path_6708" data-name="Path 6708" d="M177.348,343.543s-.851,7.772-.6,9.781,11.36,12.12,13.083,12.982c0,0,3.959-3.783,3.76-4.288s-7.806-8.139-8.538-9.2.347-7.571.347-7.571Z" transform="translate(-176.704 -343.543)" fill="#450603"/>
        <path id="Path_6709" data-name="Path 6709" d="M203.264,375.533c1.061,1.518,5.194,8.514,7.54,10.816,0,0-.681,3.216-2.15,4.15-.314.2-1.784-.865-2.04-.793a46.731,46.731,0,0,0-3.222-4.783,52.383,52.383,0,0,0-4.279-4.75C198.453,379.531,202.836,374.922,203.264,375.533Z" transform="translate(-186.505 -357.553)" fill="#e6e8f4"/>
        <g id="Group_1750" data-name="Group 1750" transform="translate(18.629 26.587)">
          <path id="Path_6710" data-name="Path 6710" d="M220.068,394.591c.167.265-3.364,8.084-5.229,10.46-.777.99-2.818,2.831-2.921,2.653a3.967,3.967,0,0,1-.5-2.063c.092-.71.8-5.2.606-6.277a6.834,6.834,0,0,0-2.134-3.565,5.159,5.159,0,0,1,.952-.026c.635.027,1.97,1.122,2.037.922.093-.274-1-1.746-1.06-2.492s2.4-2.524,1.985-3.174c.341-.355.744.1,1.972,1.274C216.345,392.843,219.214,393.237,220.068,394.591Z" transform="translate(-209.894 -390.911)" fill="#6b78b7"/>
          <g id="Group_1749" data-name="Group 1749" transform="translate(2.247 3.781)">
            <path id="Path_6711" data-name="Path 6711" d="M216.595,408.007a53.541,53.541,0,0,0,5.225-10.359,1.671,1.671,0,0,1,.575.662c.17.263-3.364,8.084-5.229,10.46-.777.99-2.818,2.831-2.921,2.653a3.757,3.757,0,0,1-.346-.846A16.925,16.925,0,0,0,216.595,408.007Z" transform="translate(-213.898 -397.648)" fill="#070540"/>
          </g>
          <path id="Path_6712" data-name="Path 6712" d="M210.846,397.1c.636.027,1.97,1.122,2.037.922.093-.274-1-1.746-1.059-2.492-.031-.368.55-.985,1.1-1.6.448,3.476,3.583,6.982,5.42,8.1a34.754,34.754,0,0,1-2.934,5.111c-.777.99-2.818,2.831-2.921,2.653a3.757,3.757,0,0,1-.346-.846c-.123.081-.205.116-.224.084a3.967,3.967,0,0,1-.5-2.063c.092-.71.8-5.2.606-6.277a6.834,6.834,0,0,0-2.134-3.565A5.157,5.157,0,0,1,210.846,397.1Z" transform="translate(-209.894 -392.237)" fill="#6b78b7" opacity="0.4" style="mix-blend-mode: multiply;isolation: isolate"/>
        </g>
      </g>
      <g id="Group_1755" data-name="Group 1755" transform="translate(7.641 118.872)">
        <g id="Group_1752" data-name="Group 1752" transform="translate(0 0)">
          <path id="Path_6713" data-name="Path 6713" d="M197.477,355.552a20.462,20.462,0,0,0,.1,3.162c.308,1.167,4.085,12.464,4.324,17.636l-5.693,1.253s-7.156-16.021-7.484-18.008a54.894,54.894,0,0,1-.328-6.222Z" transform="translate(-188.402 -353.373)" fill="#691813"/>
          <path id="Path_6714" data-name="Path 6714" d="M188.608,358.609c-.2-2.14-.206-5.236-.206-5.236l9.075,2.179c.11.2-.145,1.678.036,2.822A12.716,12.716,0,0,0,188.608,358.609Z" transform="translate(-188.402 -353.373)" fill="#450603"/>
        </g>
        <path id="Path_6715" data-name="Path 6715" d="M208.149,393.323c.147,2.276.7,11.873,1.7,15.794,0,0-2.135,2.458-4.194,2.66-.784.077-1.863-1.666-2.359-1.8a57.44,57.44,0,0,0-.336-7.091,64.317,64.317,0,0,0-1.469-7.731C201.2,394.054,208.09,392.407,208.149,393.323Z" transform="translate(-194.139 -370.783)" fill="#fff"/>
        <g id="Group_1754" data-name="Group 1754" transform="translate(2.438 35.044)">
          <path id="Path_6716" data-name="Path 6716" d="M208.872,423.342c.007.386-2.164,2-4.11,3.9-1.315,1.278-3.335,4.009-6.816,5.318-1.45.545-4.994-.187-4.989-.44a4.875,4.875,0,0,1,.8-2.488c.55-.688,4.158-4.962,4.646-6.218a8.233,8.233,0,0,0-.446-5.04,4.334,4.334,0,0,1,2.164.27c.652.434,1.556,2.257,1.754,2.091.272-.229.066-2.474.477-3.3s3.3-.662,3.168-1.582c.645-.233.8.5,1.342,2.526C207.107,419.306,208.837,421.372,208.872,423.342Z" transform="translate(-192.838 -415.809)" fill="#6b78b7"/>
          <g id="Group_1753" data-name="Group 1753" transform="translate(0 7.684)">
            <path id="Path_6717" data-name="Path 6717" d="M197.853,438.563c3.481-1.308,5.5-4.04,6.816-5.318,1.757-1.707,3.69-3.189,4.047-3.747v0a4.656,4.656,0,0,1,.14,1.337c-.039.384-2.486,2.215-4.432,4.106-1.315,1.278-3.335,4.009-6.816,5.318-1.449.545-4.867-.182-4.862-.434a7.975,7.975,0,0,1,.119-1.705C192.858,438.376,196.4,439.108,197.853,438.563Z" transform="translate(-192.745 -429.499)" fill="#070540"/>
          </g>
        </g>
      </g>
      <g id="Group_1757" data-name="Group 1757" transform="translate(0 80.741)">
        <path id="Path_6718" data-name="Path 6718" d="M204.576,292.066a17.578,17.578,0,0,0,0,3.534s-15.466,2.228-16.387-4.814c-.091-.693-.276-5.256-.517-5.347C187.672,285.438,203.968,288.507,204.576,292.066Z" transform="translate(-180.44 -285.438)" fill="#691813"/>
        <path id="Path_6719" data-name="Path 6719" d="M188.118,289.891a26.933,26.933,0,0,0-.446-4.453s16.3,3.069,16.9,6.628c0,0-.022.253-.045.629C199.859,289.466,188.118,289.891,188.118,289.891Z" transform="translate(-180.44 -285.438)" fill="#450603"/>
        <g id="Group_1756" data-name="Group 1756" transform="translate(0 4.508)">
          <path id="Path_6720" data-name="Path 6720" d="M182.469,293.47c.008,3.276-4.387,14.264-7.681,29,.543,2.069,5.767,2.178,5.767,2.178s-.225,2.145-.277,3.209c1.11,2.559,10.486,3.369,11.891,2.1.668-2.213,2.538-10.837,3.178-13.143s3.765-6.277,4.457-10,.03-8.331-.98-9.155C198.535,299.692,182.777,297.849,182.469,293.47Z" transform="translate(-174.788 -293.47)" fill="#6b78b7"/>
          <path id="Path_6721" data-name="Path 6721" d="M186.978,297.7a18.9,18.9,0,0,0,.839-4.225c.308,4.379,16.066,6.222,16.354,4.183.944.77,1.583,4.839,1.1,8.411C203.366,302.957,194.339,298.229,186.978,297.7Z" transform="translate(-180.136 -293.47)" fill="#6b78b7" opacity="0.3" style="mix-blend-mode: multiply;isolation: isolate"/>
          <path id="Path_6722" data-name="Path 6722" d="M175.9,338.07h0c2.765.937,7.341-13.165,6.888-10.769-.723,3.826-1.743,12.065-1.743,12.065S177.421,339.29,175.9,338.07Z" transform="translate(-175.274 -308.192)" fill="#6b78b7" opacity="0.3" style="mix-blend-mode: multiply;isolation: isolate"/>
        </g>
      </g>
      <g id="Group_1758" data-name="Group 1758" transform="translate(21.021 9.979)">
        <path id="Path_6723" data-name="Path 6723" d="M216.092,168.387c-2.382-.172.53-7.264.684-8.682.075-.694-1.631-.22-2.648.466s-1.075,2.68-1.075,2.68l-.813,6.171S215.872,168.968,216.092,168.387Z" transform="translate(-212.24 -159.365)" fill="#450603"/>
      </g>
      <g id="Group_1759" data-name="Group 1759" transform="translate(21.021 9.979)" opacity="0.5" style="mix-blend-mode: multiply;isolation: isolate">
        <path id="Path_6724" data-name="Path 6724" d="M216.092,168.387c-2.382-.172.53-7.264.684-8.682.075-.694-1.631-.22-2.648.466s-1.075,2.68-1.075,2.68l-.813,6.171S215.872,168.968,216.092,168.387Z" transform="translate(-212.24 -159.365)" fill="#450603"/>
      </g>
      <g id="Group_1761" data-name="Group 1761" transform="translate(18.957 0)">
        <ellipse id="Ellipse_180" data-name="Ellipse 180" cx="8.452" cy="8.452" rx="8.452" ry="8.452" transform="translate(0 6.146) rotate(-21.32)" fill="#f07d18"/>
        <g id="Group_1760" data-name="Group 1760" transform="translate(2.496 2.567)">
          <path id="Path_6725" data-name="Path 6725" d="M217.376,150.059a10.771,10.771,0,0,1,1.355-1.634,14.638,14.638,0,0,1-1.857-.983,8.5,8.5,0,0,1,.792-.454,13.942,13.942,0,0,0,1.717.848,9.091,9.091,0,0,1,1.533-1.023,8.4,8.4,0,0,1,1.629-.653l.124.015a8.482,8.482,0,0,1,1.806.47,7.635,7.635,0,0,0-3.189.871,8.263,8.263,0,0,0-1.03.649,25.973,25.973,0,0,0,3.551.861,11.7,11.7,0,0,1,5.3,1.927,8.442,8.442,0,0,1,.579,1.667c-1.656-1.979-3.663-2.363-6.033-2.814a24.636,24.636,0,0,1-4.123-1.051,9.751,9.751,0,0,0-1.369,1.556,22.429,22.429,0,0,1,10.916,7.888,8.417,8.417,0,0,1-.423.773,21.492,21.492,0,0,0-10.925-8,14.263,14.263,0,0,0-1.52,3.566,10.886,10.886,0,0,1,3.291,3,17.034,17.034,0,0,0,5.442,4.707,8.473,8.473,0,0,1-.969.372,18.6,18.6,0,0,1-5.081-4.568,10.937,10.937,0,0,0-2.884-2.74,23.341,23.341,0,0,0-.58,5.164,8.49,8.49,0,0,1-.771-.9,23.324,23.324,0,0,1,.615-4.578,5.259,5.259,0,0,0-2.265-.169q-.013-.394.012-.794a6.05,6.05,0,0,1,2.452.213,15.225,15.225,0,0,1,1.477-3.505,15.336,15.336,0,0,0-2.756-.519,8.45,8.45,0,0,1,.483-.723A17.33,17.33,0,0,1,217.376,150.059Z" transform="translate(-213.009 -146.159)" fill="#070540"/>
        </g>
      </g>
      <g id="Group_1762" data-name="Group 1762" transform="translate(11.591 12.483)">
        <path id="Path_6726" data-name="Path 6726" d="M203.577,195.935s-1.388-2.565-1.854-3.5,5.564-18.156,6.033-18.856c1.193-1.782,4.363-2.139,4.5-3.01.078-.51-.306-.7-.874-.773a7.692,7.692,0,0,0-2.63.366c-.6.118-2.167.324-2.586-.065-.671-.625-.566-3.317-.532-4.027s.153-1.954-.146-2.179c-.33-.249-.884.179-1.12,1.812s-.2,6.588-.539,7.493-4.551,8.933-5.392,10.513a70.562,70.562,0,0,0-2.985,7.381c-.225.852,4.221,9.639,4.786,10.673S203.986,196.91,203.577,195.935Z" transform="translate(-195.439 -163.826)" fill="#450603"/>
        <path id="Path_6727" data-name="Path 6727" d="M204.686,217.823c.489.919.967,1.8.967,1.8.409.974-2.778,6.862-3.343,5.828-.238-.436-1.164-2.246-2.139-4.258A9.91,9.91,0,0,0,204.686,217.823Z" transform="translate(-197.515 -187.516)" fill="#450603" opacity="0.3" style="mix-blend-mode: multiply;isolation: isolate"/>
        <path id="Path_6728" data-name="Path 6728" d="M212.588,226.846c-.19-.075-4.578-4.426-5.909-6.872a10.651,10.651,0,0,0-3.857,5.149c-.855,3.092,7.867,7.834,9.87,8.1S215.382,227.959,212.588,226.846Z" transform="translate(-198.652 -188.459)" fill="#ffb718"/>
      </g>
      <g id="Group_1763" data-name="Group 1763" transform="translate(27.348 41.925)">
        <path id="Path_6729" data-name="Path 6729" d="M235.186,227.51a6.318,6.318,0,0,1,3.046-2.168c1.808-.759,3.148-2.01,2.615-4.623A6.375,6.375,0,0,0,236.5,216.3a2.125,2.125,0,0,0-1.856.867S231.786,225.7,235.186,227.51Z" transform="translate(-227.903 -216.281)" fill="#330300"/>
        <path id="Path_6730" data-name="Path 6730" d="M223.525,226.523c-.162.715,1.28,1.924,1.32,2.142a19.452,19.452,0,0,1-.78,2.365s5.686,2.929,5.878,3.083c0,0,.43-1.367.851-2.306a3.025,3.025,0,0,1,1.367-3.246c1-.728-.058-.995-.058-.995S224.5,225.087,223.525,226.523Z" transform="translate(-223.512 -220.578)" fill="#450603"/>
        <path id="Path_6731" data-name="Path 6731" d="M229.885,224.321c.411.5,1.922,1.248,2.689.145s-.366-1.631-1.778-1.376c-.223.04,1.375-1.67,1.393-1.847.011-.117-.006-.776.2-.99.438-.465.976-.7.822-1.146a2.469,2.469,0,0,0-2.085-1.484,8.5,8.5,0,0,0-3.87,1.567,28.968,28.968,0,0,0-3.716,3.625c.729-.6,2.326,1.176,4.14,1.849A2.206,2.206,0,0,0,229.885,224.321Z" transform="translate(-223.522 -216.869)" fill="#691813"/>
      </g>
      <path id="Path_6732" data-name="Path 6732" d="M218.634,226.356" transform="translate(-194.024 -178.776)" fill="#450603"/>
      <g id="Group_1765" data-name="Group 1765" transform="translate(1.552 52.688)">
        <path id="Path_6733" data-name="Path 6733" d="M211.863,241.311s-.684,3.273-5.514,12.679c-3.1,6.044-6.091,11.777-6.212,16.148.2-.847-21.765-6.924-22.512-2.437a15.072,15.072,0,0,1,2.841-10.11c3.623-5.295,13.6-19.98,18.006-21.835S211.863,241.311,211.863,241.311Z" transform="translate(-177.553 -235.458)" fill="#e6e8f4"/>
        <g id="Group_1764" data-name="Group 1764" transform="translate(9.167)">
          <path id="Path_6734" data-name="Path 6734" d="M214.3,245.377c-8.721-1.059-14.83,4.479-20.414,3.294,4.168-5.708,9.027-11.768,11.75-12.916,3.474-1.464,9.8,2.84,12.317,4.721C217.872,240.492,216.117,245.6,214.3,245.377Z" transform="translate(-193.886 -235.458)" fill="#acb3d8"/>
        </g>
      </g>
      <g id="Group_1766" data-name="Group 1766" transform="translate(1.434 20.148)">
        <path id="Path_6735" data-name="Path 6735" d="M207.682,242.149s-1.133-.044-1.326-4.359,7.445,1.926,7.445,1.926S210.156,243.034,207.682,242.149Z" transform="translate(-190.07 -203.274)" fill="#ffb718"/>
        <path id="Path_6736" data-name="Path 6736" d="M196.2,207.046s-2.817-.637-3.7-1.427-6.571-13.147-6.924-14.066,1.073-2.066,1.47-2.756a11.911,11.911,0,0,1,2.418-2.135c.443-.361-.4-.913-.906-.794s-2.15,1.1-2.573,1.091-.639-1.93-.681-2.7.351-5.019.369-5.493a.478.478,0,0,0-.933-.135c-.184.569-.838,4.506-.993,4.756s-.4.18-.409.008.136-5.066.159-5.455-.727-.735-.917-.132-.647,5.18-.773,5.349-1.467-4.448-1.6-4.791-.917-.251-.884.349,1.321,4.869,1.208,5.176-2.173-2.27-2.446-2.5-1.019-.011-.623.658,1.8,2.625,2.064,3.139.468,3.47.774,4.416a8.126,8.126,0,0,0,1.385,1.952c.242.324,3.987,15.5,4.743,17.093s11.172,6.744,12,7.374S200.43,208.491,196.2,207.046Z" transform="translate(-177.343 -177.483)" fill="#691813"/>
        <path id="Path_6737" data-name="Path 6737" d="M208.968,229.857c.394.106.661.167.661.167,4.231,1.445,3.052,9.61,2.224,8.98-.307-.233-1.933-1.089-3.9-2.153C209.893,235.851,209,229.967,208.968,229.857Z" transform="translate(-190.775 -200.461)" fill="#450603" opacity="0.5"/>
        <path id="Path_6738" data-name="Path 6738" d="M225.622,236.933c-.518-2.244-2.6-4.28-6.91-4.98s-8.748-1.8-8.748-1.8c2.165,1.794,1.847,10.383-1.243,9.312,0,0,8.523,3.35,12.087,3.584S226.062,238.839,225.622,236.933Z" transform="translate(-191.109 -200.591)" fill="#feda00"/>
      </g>
    </g>
    <g id="Group_1796" data-name="Group 1796" transform="translate(172.905 114.017)">
      <g id="Group_1791" data-name="Group 1791" transform="translate(0 14.507)">
        <g id="Group_1774" data-name="Group 1774" transform="translate(15.978 46.612)">
          <g id="Group_1772" data-name="Group 1772" transform="translate(0 23.52)">
            <g id="Group_1770" data-name="Group 1770" transform="translate(0 14.849)">
              <g id="Group_1768" data-name="Group 1768" transform="translate(0 16.461)">
                <path id="Path_6739" data-name="Path 6739" d="M238.014,413.17s-.775.171-1.072.243c-.175.043-.181.823-.068,1.005s1.238.328,1.238.328S238.195,413.251,238.014,413.17Z" transform="translate(-236.799 -413.17)" fill="#070540"/>
                <path id="Path_6740" data-name="Path 6740" d="M238.134,416.838s-.757.236-1.047.333c-.171.058-.11.836.017,1.007s1.261.222,1.261.222S238.321,416.9,238.134,416.838Z" transform="translate(-236.879 -414.779)" fill="#070540"/>
                <path id="Path_6741" data-name="Path 6741" d="M239.373,429.49s-.742,0-1.029.007c-.168,0-.331.717-.264.905s1.066.548,1.066.548S239.523,429.6,239.373,429.49Z" transform="translate(-237.354 -420.33)" fill="#070540"/>
                <path id="Path_6742" data-name="Path 6742" d="M238.844,435.927s-.6.261-.823.367c-.134.062-.013.691.106.819s1.048.066,1.048.066S239,435.963,238.844,435.927Z" transform="translate(-237.309 -423.154)" fill="#070540"/>
                <path id="Path_6743" data-name="Path 6743" d="M240.1,439.626s-.358.542-.492.755c-.079.125.4.568.592.566a3.785,3.785,0,0,0,.857-.45S240.258,439.57,240.1,439.626Z" transform="translate(-238.03 -424.776)" fill="#070540"/>
              </g>
              <g id="Group_1769" data-name="Group 1769" transform="translate(2.925)">
                <path id="Path_6744" data-name="Path 6744" d="M260.163,391.61c.436,2.442-10.509,8.365-13.49,14.451-.253.516-1.786,3.429-2.3,3.635-1.405.558-2.133-1.569-2.25-2.38-.314-2.183-.043-6.922,2.155-8.556,2.3-1.705,4.981-5.887,6.307-8.549,1.07-2.151,4.026-6.331,6.267-6.369S260.163,391.61,260.163,391.61Z" transform="translate(-242.01 -383.842)" fill="#e6e8f4"/>
                <path id="Path_6745" data-name="Path 6745" d="M261.052,388.754c.176-.222.357-.441.542-.653-.02.07-.042.136-.057.213-.788,4.029,1.455,8.044,3.345,9.038a2.3,2.3,0,0,0,.335.144l-.358.3c-.057-.025-.113-.049-.17-.079C262.769,396.71,260.509,392.789,261.052,388.754Z" transform="translate(-250.328 -385.71)" fill="#6b78b7"/>
              </g>
              <path id="Path_6746" data-name="Path 6746" d="M247.915,422.583c.633-1.347-1.023-2.546-2.332-1.011l-.125,3.1s1.714.389,1.682.341S247.915,422.583,247.915,422.583Z" transform="translate(-240.598 -400.079)" fill="#6b78b7"/>
              <path id="Path_6747" data-name="Path 6747" d="M242.6,410.421c-.657.385-2.723-.226-4.027.974-1.141,1.05.706,6.683.462,8.016s-1.112,3-.753,5.644,2.379,3.894,4.048,3.552c1.261-.259,1.274-4.421,1.7-7.039a9.234,9.234,0,0,1,1.607-4.24s-1.4-.061-2.289,2.21a2.62,2.62,0,0,0-.584-2.8A4.752,4.752,0,0,1,242.6,410.421Z" transform="translate(-237.412 -395.503)" fill="#acb3d8"/>
            </g>
            <path id="Path_6748" data-name="Path 6748" d="M265.709,360.825s1.416.819,8.064.468,4.083-3.639,1.276-3.884S265.656,359.01,265.709,360.825Z" transform="translate(-249.482 -357.387)" fill="#070540"/>
            <g id="Group_1771" data-name="Group 1771" transform="translate(16.783 0.021)">
              <path id="Path_6749" data-name="Path 6749" d="M282.253,360.912s-1.876,6.583-3.652,9.673-2.1,5.066-3.124,6.062c-.836.809-2.175,1.647-4.664,4.186-1.368,1.395-4.794-3.211-3.995-7.3.315-1.611,2.055-1.42,2.3-2.944s-.317-9.743-.427-11.391S281.444,355.546,282.253,360.912Z" transform="translate(-266.699 -357.425)" fill="#ffd2b3"/>
              <path id="Path_6750" data-name="Path 6750" d="M270.506,363.281c-.1-1.83-.214-3.445-.257-4.081-.111-1.647,12.752-3.655,13.561,1.712,0,0-.159.557-.427,1.421C279.732,360.38,272.054,362.254,270.506,363.281Z" transform="translate(-268.257 -357.425)" fill="#ffb98b"/>
            </g>
          </g>
          <g id="Group_1773" data-name="Group 1773" transform="translate(10.673)">
            <path id="Path_6751" data-name="Path 6751" d="M276.095,316.456s3.131,10.306,2.918,15.515a49.352,49.352,0,0,1-1.57,10.691c.02-.176.455-1.815-4.689-2.05-5.855-.269-11.163.793-11.386,1.829-1.27-.133,1.93-4.94,1.17-13.016a13.523,13.523,0,0,0-6.724-10.939s1.536-1.476,1.034-3C256.848,315.482,272.275,318.282,276.095,316.456Z" transform="translate(-255.814 -315.482)" fill="#6b78b7"/>
            <path id="Path_6752" data-name="Path 6752" d="M276.095,316.456s3.131,10.306,2.918,15.515a49.352,49.352,0,0,1-1.57,10.691c.02-.176.455-1.815-4.689-2.05-5.855-.269-11.163.793-11.386,1.829-1.27-.133,1.93-4.94,1.17-13.016a13.523,13.523,0,0,0-6.724-10.939s1.536-1.476,1.034-3C256.848,315.482,272.275,318.282,276.095,316.456Z" transform="translate(-255.814 -315.482)" fill="#6b78b7" opacity="0.3" style="mix-blend-mode: multiply;isolation: isolate"/>
          </g>
        </g>
        <g id="Group_1790" data-name="Group 1790">
          <g id="Group_1781" data-name="Group 1781" transform="translate(25.196 46.191)">
            <path id="Path_6753" data-name="Path 6753" d="M269.458,349.943s2.279,1.714,7.434-3.848c5.422-5.85-5.319-6.049-5.564-6.014S267.056,346.975,269.458,349.943Z" transform="translate(-260.012 -325.852)" fill="#070540"/>
            <g id="Group_1775" data-name="Group 1775" transform="translate(11.072 9.203)">
              <path id="Path_6754" data-name="Path 6754" d="M284.973,331.777s8.547,7.026,10.567,9.894c.661.939-.375,5.4-.52,10.241-1.429-.482-7.186-.163-8.914.392.4-2.138,1.215-3.932,1.212-4.442,0-.826-10.674-5.256-13.576-7.239S276.22,328.5,284.973,331.777Z" transform="translate(-272.949 -331.129)" fill="#ffd2b3"/>
              <path id="Path_6755" data-name="Path 6755" d="M284.973,331.777s.342.281.9.748c-.038.011-.076.019-.114.033-4.711,1.591-6.635,6.115-7.145,10.669a46.8,46.8,0,0,1-4.871-2.6C270.839,338.64,276.22,328.5,284.973,331.777Z" transform="translate(-272.949 -331.129)" fill="#ffb98b"/>
            </g>
            <path id="Path_6756" data-name="Path 6756" d="M276.319,324.583c1-.824-17.688-11.542-21.272-9.62-3.083,1.653-1.551,8.8-.5,12.225,1.8,5.863,5.482,7.787,8.122,11.635-.666-.794-.532-2.8,2.906-5.7C269.5,329.826,269.9,324.619,276.319,324.583Z" transform="translate(-253.223 -314.733)" fill="#6b78b7"/>
            <g id="Group_1780" data-name="Group 1780" transform="translate(22.808 29.093)">
              <g id="Group_1777" data-name="Group 1777" transform="translate(1.198)">
                <path id="Path_6757" data-name="Path 6757" d="M297.956,385.179c-.306-3.518-1.988-11.5-1.962-17.441.033-.184,4.258-2.251,9.277-.418-.278,6.739-1.212,14.6-1.437,19.974-.1,2.412,1.082,5.362,1.054,5.945,0,0-3.858,2.738-7.832-4.014C297.427,388.917,298.218,388.193,297.956,385.179Z" transform="translate(-295.993 -366.567)" fill="#e6e8f4"/>
                <g id="Group_1776" data-name="Group 1776" transform="translate(0.067 2.561)">
                  <path id="Path_6758" data-name="Path 6758" d="M305.2,371.762l-.027.429a12.984,12.984,0,0,0-9.032.344c-.01-.149-.019-.3-.027-.447A13.446,13.446,0,0,1,305.2,371.762Z" transform="translate(-296.113 -371.131)" fill="#6b78b7"/>
                </g>
              </g>
              <g id="Group_1779" data-name="Group 1779" transform="translate(0 22.177)">
                <path id="Path_6759" data-name="Path 6759" d="M312.194,415.116a24.62,24.62,0,0,1-.743-4.782c0-.6-1.334-.042-1.28,1.185C310.215,412.506,312.526,416.489,312.194,415.116Z" transform="translate(-301.014 -407.84)" fill="#6b78b7"/>
                <g id="Group_1778" data-name="Group 1778" transform="translate(0 3.384)">
                  <path id="Path_6760" data-name="Path 6760" d="M298.254,416.332a8.959,8.959,0,0,1-1.17.679c-.243.135-.89-.516-.776-.732s.55-1.347.7-1.338A4.477,4.477,0,0,1,298.254,416.332Z" transform="translate(-294.927 -413.351)" fill="#070540"/>
                  <path id="Path_6761" data-name="Path 6761" d="M305.845,423.817a8.044,8.044,0,0,1-1.15.4c-.237.077-.7-.608-.56-.78s.716-1.1.844-1.063A4.029,4.029,0,0,1,305.845,423.817Z" transform="translate(-298.356 -416.612)" fill="#070540"/>
                  <path id="Path_6762" data-name="Path 6762" d="M308.859,426.807a7.278,7.278,0,0,1-.912.612c-.19.122-.749-.372-.668-.552s.374-1.121.493-1.122A3.639,3.639,0,0,1,308.859,426.807Z" transform="translate(-299.743 -418.091)" fill="#070540"/>
                  <path id="Path_6763" data-name="Path 6763" d="M312.533,430.115a6.484,6.484,0,0,1-.76.611c-.158.122-.69-.271-.633-.438s.245-1.02.351-1.029A3.241,3.241,0,0,1,312.533,430.115Z" transform="translate(-301.438 -419.633)" fill="#070540"/>
                  <path id="Path_6764" data-name="Path 6764" d="M316.54,431.488a6.057,6.057,0,0,1-.52.743c-.11.15-.687-.063-.679-.227s-.045-.974.047-1.01A3,3,0,0,1,316.54,431.488Z" transform="translate(-303.279 -420.393)" fill="#070540"/>
                  <path id="Path_6765" data-name="Path 6765" d="M295.818,413.5a8.98,8.98,0,0,1-1.17.679c-.242.135-.89-.516-.776-.732s.549-1.347.7-1.339A4.48,4.48,0,0,1,295.818,413.5Z" transform="translate(-293.858 -412.109)" fill="#070540"/>
                </g>
                <path id="Path_6766" data-name="Path 6766" d="M305.923,415.129c-.883-2.4-1.763-4.314-2.073-5.4-.281-.99-3.127.335-4.568-.277a3.592,3.592,0,0,1-2.526-3.369,3.844,3.844,0,0,0-2.435,3.33.776.776,0,0,0,.185.5,38.589,38.589,0,0,0,3.292,3.415c2.43,2.277,4.056,5.043,6.584,6.767s3.925,1.034,4.188.512S306.465,416.6,305.923,415.129Z" transform="translate(-294.061 -406.079)" fill="#acb3d8"/>
              </g>
            </g>
          </g>
          <g id="Group_1783" data-name="Group 1783" transform="translate(0 21.343)">
            <path id="Path_6767" data-name="Path 6767" d="M226.031,274.415s-2.991,1.1-3.692,1.413-2.2,2.818-4.086,4.652-4.181,4.334-4.471,5.286.432,2.924.205,3.813a30.71,30.71,0,0,1-1.222,3.393c-.193.381-.891.282-1.174-.323,0,0-1.851.366-2.526-.469a7.327,7.327,0,0,1-.731-2.754c-.061-.6,1.956-4.121,2.436-4.945s5.892-10.775,7.422-11.88,3.119-1.32,4.806-2.139C223,270.462,225.971,273.43,226.031,274.415Z" transform="translate(-208.333 -270.462)" fill="#ffd2b3"/>
            <g id="Group_1782" data-name="Group 1782" transform="translate(0.326)">
              <path id="Path_6768" data-name="Path 6768" d="M209.32,307a3.006,3.006,0,0,1-.407-.961,4.218,4.218,0,0,0,1.479-.085c1.176-.281,2.251-2.77,1.688-1.184a4.725,4.725,0,0,0-.234,2.7S210,307.837,209.32,307Z" transform="translate(-208.913 -285.284)" fill="#ffb98b"/>
              <path id="Path_6769" data-name="Path 6769" d="M231.937,270.462s2.973,2.967,3.033,3.953c0,0-2.991,1.1-3.692,1.413a2.919,2.919,0,0,0-.782.735l0,0c.811-1.025-.4-4.936-1.79-4.829C229.749,271.285,230.821,271,231.937,270.462Z" transform="translate(-217.597 -270.462)" fill="#ffb98b"/>
            </g>
          </g>
          <path id="Path_6770" data-name="Path 6770" d="M297.578,275.281s1.474.113,1.938-2.553-6.2-4.554-6.2-4.554S295.37,274.236,297.578,275.281Z" transform="translate(-245.617 -248.115)" fill="#00b09d"/>
          <g id="Group_1787" data-name="Group 1787" transform="translate(49.568 17.509)">
            <g id="Group_1784" data-name="Group 1784" transform="translate(0 0.806)">
              <path id="Path_6771" data-name="Path 6771" d="M300.73,265.105s7.287,3.527,8.381,3.818,2.494,6.356,1.854,6.324c-2.215-.108-13.9-3.947-14.253-4.211S297.362,264.526,300.73,265.105Z" transform="translate(-296.645 -265.068)" fill="#ffd2b3"/>
              <path id="Path_6772" data-name="Path 6772" d="M313.189,269.517c1.459.672,2.765,1.248,3.18,1.358,1.1.29,2.494,6.356,1.854,6.324a30.893,30.893,0,0,1-4.771-1.13C315.179,276.159,313.784,270.93,313.189,269.517Z" transform="translate(-303.903 -267.02)" fill="#ffb98b" opacity="0.4"/>
              <path id="Path_6773" data-name="Path 6773" d="M300.73,265.105l.885.426c-.963.13-1.911,5.92-1.744,6.623-1.76-.579-3.044-1.033-3.158-1.118C296.357,270.773,297.362,264.526,300.73,265.105Z" transform="translate(-296.645 -265.068)" fill="#ffb98b"/>
            </g>
            <g id="Group_1786" data-name="Group 1786" transform="translate(9.319)">
              <path id="Path_6774" data-name="Path 6774" d="M320.064,272.474a5.8,5.8,0,0,0,1.159,1.982,2.608,2.608,0,0,1-.8,3.9c-1.289.494-3.047-.609-3.564-2.208a11.545,11.545,0,0,1-.51-3.195Z" transform="translate(-314.607 -267.511)" fill="#ffe5cf"/>
              <path id="Path_6775" data-name="Path 6775" d="M319.417,267.407a12.143,12.143,0,0,1-.652,3.539c-.766,1.4-2.848,1.306-3.926.649s-1.576-2.755-1.59-3.263.178-.762.973-.917S319.417,267.407,319.417,267.407Z" transform="translate(-313.249 -265.261)" fill="#ffb98b"/>
              <g id="Group_1785" data-name="Group 1785" transform="translate(0.464)">
                <path id="Path_6776" data-name="Path 6776" d="M321.691,267.334s-.188.919.086,1.255.808.162,1.025-.369a10.922,10.922,0,0,0,.474-2.1c.083-.581-.86-1.1-1.148-.636A6.742,6.742,0,0,0,321.691,267.334Z" transform="translate(-317.389 -264.365)" fill="#ffe5cf"/>
                <path id="Path_6777" data-name="Path 6777" d="M319.2,268.1s-.007.759.532.9c.42.107.827-.163.922-.729a24.053,24.053,0,0,0,.394-3.2c-.047-.586-1.149-.8-1.4-.316A9.391,9.391,0,0,0,319.2,268.1Z" transform="translate(-316.317 -264.007)" fill="#ffe5cf"/>
                <path id="Path_6778" data-name="Path 6778" d="M316.584,267.473s0,.961.647,1.115c.427.1.736-.293.832-.869a27.2,27.2,0,0,0,.432-3.411c-.047-.6-1.277-.694-1.529-.2A9.271,9.271,0,0,0,316.584,267.473Z" transform="translate(-315.168 -263.702)" fill="#ffe5cf"/>
                <path id="Path_6779" data-name="Path 6779" d="M314.235,266.593s.143.839.505,1.077.819-.092.866-.668a20,20,0,0,0,.163-2.926c-.1-.584-1.318-.576-1.525-.071A5.423,5.423,0,0,0,314.235,266.593Z" transform="translate(-314.075 -263.632)" fill="#ffe5cf"/>
              </g>
            </g>
          </g>
          <path id="Path_6780" data-name="Path 6780" d="M266.651,236.5s.488-3.446-3.924-4.01a4.826,4.826,0,0,0-5.768,4.905c.019,2.251-.575,2.563-3.348,2.012s-6.293.921-6.329,4.295c-.062,5.757,2.551,7.329,8.552,8.452s9.606-6.174,8.666-9.43S264.775,236.3,266.651,236.5Z" transform="translate(-225.42 -232.437)" fill="#f07d18"/>
          <path id="Path_6781" data-name="Path 6781" d="M265.337,290.691s3.119-1.32,2.493-3.483-3.605-7.306-2.822-12,1.494-3.758.558-7.765c0,0,3.134,2.492,4.8,2.832,0,0-1.426-.816-1.079-3.817a6.429,6.429,0,0,1,2.772-5,56,56,0,0,1-7.022-3.552c-2.471-1.631-5.642-1.215-9.48-.653-5.149.753-11.1-.348-14.393.712s-6.195,4.908-9.752,7.157c-.862.546,3.166,6.024,6.459,4.768.594-.227,3.01-1.848,3.44-2.106s2.9,1.451,3.849,7.344c.538,3.327.263,11.187-.172,12.52s-.083,1.866,1.1,2.069S258,293.709,265.337,290.691Z" transform="translate(-218.406 -243.106)" fill="#5bcfde"/>
          <g id="Group_1788" data-name="Group 1788" transform="translate(36.89 13.653)" opacity="0.5">
            <path id="Path_6782" data-name="Path 6782" d="M294.806,274.293a27.086,27.086,0,0,1-3.258-2.2,23.067,23.067,0,0,1-1.033-4.588C290.551,266.279,293.526,273.641,294.806,274.293Z" transform="translate(-281.277 -261.415)" fill="#00b09d"/>
            <path id="Path_6783" data-name="Path 6783" d="M298.342,279.8l-.116-.062C298.508,279.864,298.51,279.873,298.342,279.8Z" transform="translate(-284.661 -266.842)" fill="#00b09d"/>
            <path id="Path_6784" data-name="Path 6784" d="M274.253,257.264l.065-.008a23.845,23.845,0,0,1,6.663-.379c-.966-.1-3.743.088-1.673,1.056,2.228,1.042,3.541,3.954,1.759,4.573s-6.735-1.889-6.735-1.889A6.131,6.131,0,0,1,274.253,257.264Z" transform="translate(-274.058 -256.761)" fill="#00b09d"/>
          </g>
          <g id="Group_1789" data-name="Group 1789" transform="translate(33.04 2.733)">
            <path id="Path_6785" data-name="Path 6785" d="M275.389,252.537a8.6,8.6,0,0,1-2.317.525,17.357,17.357,0,0,1,.257,3.921c-.264,1.672-6.345-1.711-6.126-2.911,0,0,1.635-3.016,1.028-5.211C268.232,248.86,276.04,252.243,275.389,252.537Z" transform="translate(-267.198 -242.375)" fill="#ffb98b"/>
            <path id="Path_6786" data-name="Path 6786" d="M270.983,249.723l0,0a.764.764,0,0,0-.42-.079,2.3,2.3,0,0,0-1.4.622,4.313,4.313,0,0,0-.121-1.409S269.88,249.224,270.983,249.723Z" transform="translate(-268.006 -242.375)" fill="#ffb98b" opacity="0.33" style="mix-blend-mode: multiply;isolation: isolate"/>
            <path id="Path_6787" data-name="Path 6787" d="M271.7,252.716s6.19,1.276,5.667,1.513a8.6,8.6,0,0,1-2.317.525A6.285,6.285,0,0,1,271.7,252.716Z" transform="translate(-269.171 -244.067)" fill="#ffb98b" opacity="0.33" style="mix-blend-mode: multiply;isolation: isolate"/>
            <path id="Path_6788" data-name="Path 6788" d="M275.74,238.019c.7,1.4.649,8.429.557,9.134-.058.45-1.3.516-2.172.333a14.693,14.693,0,0,1-3.734-1.413c-.386-.273-.52-1.243-.561-1.753-.36.253-1.143-.139-1.378-.953-.068-.345.92-.667,1.347-.537a2.776,2.776,0,0,1,.591.952c-.393-2.933,2.057-3.163,1.7-5.423-.173-1.1,2.272-.414,2.511-.54S275.036,236.617,275.74,238.019Z" transform="translate(-267.746 -237.306)" fill="#ffd2b3"/>
          </g>
          <path id="Path_6789" data-name="Path 6789" d="M254.381,280.069c1.562,2.294,6.65,4.794,6.789,5.7s-7.7-2.511-7.9-.036a29.274,29.274,0,0,0-.275-3.622c-.954-5.892-3.419-7.6-3.849-7.343,0,0,2.842-2.144,3.6-2.092S252.818,277.776,254.381,280.069Z" transform="translate(-226.236 -250.09)" fill="#00b09d" opacity="0.5"/>
        </g>
      </g>
      <g id="Group_1795" data-name="Group 1795" transform="translate(39.629)">
        <g id="Group_1794" data-name="Group 1794">
          <g id="Group_1792" data-name="Group 1792">
            <path id="Path_6790" data-name="Path 6790" d="M287.053,211.67l1.022-2.637-1.733-1.295-2.778,1.018-.955,2.339,1.716,1.5Z" transform="translate(-280.548 -207.094)" fill="#f4f3f3"/>
            <path id="Path_6791" data-name="Path 6791" d="M282.9,211.053l.834-2.042a.176.176,0,0,1,.1-.1l2.521-.924a.179.179,0,0,1,.168.025l1.444,1.079a.178.178,0,0,1,.059.208l-.9,2.319a.179.179,0,0,1-.109.1l-2.453.834a.18.18,0,0,1-.176-.035l-1.446-1.267A.179.179,0,0,1,282.9,211.053Z" transform="translate(-280.668 -207.199)" fill="#fff"/>
            <path id="Path_6792" data-name="Path 6792" d="M281.407,213.718l-1.539,1.97.711,2.591,1.983-.231.561-2.826Z" transform="translate(-279.346 -209.718)" fill="#070540"/>
            <path id="Path_6793" data-name="Path 6793" d="M290.992,208.53l2.838.417.626-.715a6.6,6.6,0,0,0-4.581-1.637l-.617.64Z" transform="translate(-283.466 -206.591)" fill="#f4f3f3"/>
            <path id="Path_6794" data-name="Path 6794" d="M290.183,206.768a6.5,6.5,0,0,1,4.179,1.433.179.179,0,0,1,.021.257l-.339.387a.18.18,0,0,1-.161.059l-2.619-.385a.174.174,0,0,1-.081-.034l-1.424-1.064a.178.178,0,0,1-.022-.267l.318-.329A.182.182,0,0,1,290.183,206.768Z" transform="translate(-283.653 -206.668)" fill="#fff"/>
            <path id="Path_6795" data-name="Path 6795" d="M286.8,207.237l.617-.64a6.613,6.613,0,0,0-3.761,1.32l.366.338Z" transform="translate(-281.008 -206.593)" fill="#070540"/>
            <path id="Path_6796" data-name="Path 6796" d="M281.037,211.626l.955-2.339-.366-.338a6.628,6.628,0,0,0-2.6,4.487l.473.159Z" transform="translate(-278.976 -207.625)" fill="#f4f3f3"/>
            <path id="Path_6797" data-name="Path 6797" d="M279.378,213.561a.179.179,0,0,1-.121-.2,6.49,6.49,0,0,1,1.536-3.269,6.588,6.588,0,0,1,.807-.776.179.179,0,0,1,.233.009l.051.047a.178.178,0,0,1,.044.2l-.868,2.125a.173.173,0,0,1-.024.042l-1.394,1.784a.179.179,0,0,1-.2.059Z" transform="translate(-279.077 -207.77)" fill="#fff"/>
            <path id="Path_6798" data-name="Path 6798" d="M279.46,217.1l-.473-.159a6.63,6.63,0,0,0,1.179,4.657l0-1.906Z" transform="translate(-278.938 -211.132)" fill="#f4f3f3"/>
            <path id="Path_6799" data-name="Path 6799" d="M279.808,220.842a6.512,6.512,0,0,1-.679-3.384.179.179,0,0,1,.236-.154h0a.178.178,0,0,1,.115.122l.662,2.412a.2.2,0,0,1,.006.048l0,.874A.179.179,0,0,1,279.808,220.842Z" transform="translate(-279.014 -211.287)" fill="#fff"/>
          </g>
          <g id="Group_1793" data-name="Group 1793" transform="translate(1.228 1.641)">
            <path id="Path_6800" data-name="Path 6800" d="M285.281,223.33l-1.083-.949-1.084-.949-1.983.231,0,1.906a6.6,6.6,0,0,0,2.3,2.012l1.889-.255Z" transform="translate(-281.126 -214.743)" fill="#f4f3f3"/>
            <path id="Path_6801" data-name="Path 6801" d="M282.3,224.722a6.552,6.552,0,0,1-.961-1.05.182.182,0,0,1-.035-.108l0-1.568a.179.179,0,0,1,.158-.177l1.615-.188a.178.178,0,0,1,.139.043l1.981,1.737a.179.179,0,0,1,.061.131l.025,1.626a.178.178,0,0,1-.154.18l-1.554.21a.182.182,0,0,1-.112-.02A6.555,6.555,0,0,1,282.3,224.722Z" transform="translate(-281.204 -214.83)" fill="#fff"/>
            <path id="Path_6802" data-name="Path 6802" d="M290.123,216.642l-1.084-.949-1.084-.949-2.728.928-.561,2.826,1.084.949,1.084.949,2.728-.928Z" transform="translate(-282.679 -211.808)" fill="#f4f3f3"/>
            <path id="Path_6803" data-name="Path 6803" d="M284.893,218.466l.5-2.512a.178.178,0,0,1,.117-.134l2.424-.825a.18.18,0,0,1,.176.035l1.926,1.687a.18.18,0,0,1,.057.169l-.5,2.511a.181.181,0,0,1-.118.135l-2.424.824a.178.178,0,0,1-.175-.035l-1.926-1.687A.179.179,0,0,1,284.893,218.466Z" transform="translate(-282.777 -211.915)" fill="#fff"/>
            <path id="Path_6804" data-name="Path 6804" d="M293.949,217.064l2.48-1.36,1.512,1.548-.643,2.887-2.193,1.254-1.716-1.5Z" transform="translate(-286.506 -212.23)" fill="#f4f3f3"/>
            <path id="Path_6805" data-name="Path 6805" d="M293.614,219.882l.5-2.541a.176.176,0,0,1,.089-.122l2.181-1.2a.179.179,0,0,1,.214.031l1.259,1.289a.179.179,0,0,1,.047.163l-.584,2.621a.178.178,0,0,1-.086.116l-1.915,1.1a.178.178,0,0,1-.207-.021l-1.446-1.267A.178.178,0,0,1,293.614,219.882Z" transform="translate(-286.603 -212.36)" fill="#fff"/>
            <path id="Path_6806" data-name="Path 6806" d="M294.387,210.462l-2.839-.417-1.022,2.637,1.084.949,1.084.949,2.48-1.36Z" transform="translate(-285.25 -209.747)" fill="#070540"/>
            <path id="Path_6807" data-name="Path 6807" d="M292.972,224.665l-1.75,1.784-2.662-.364-.031-2,2.728-.928Z" transform="translate(-284.373 -215.502)" fill="#070540"/>
            <path id="Path_6808" data-name="Path 6808" d="M298.191,212.988l-.787-2.759.626-.715a6.6,6.6,0,0,1,2.225,4.326l-.553.7Z" transform="translate(-288.267 -209.514)" fill="#f4f3f3"/>
            <path id="Path_6809" data-name="Path 6809" d="M298.369,213.064l-.726-2.546a.18.18,0,0,1,.038-.167l.339-.387a.179.179,0,0,1,.258-.013,6.5,6.5,0,0,1,1.97,3.954.184.184,0,0,1-.039.134l-.285.359a.179.179,0,0,1-.268.013l-1.242-1.272A.175.175,0,0,1,298.369,213.064Z" transform="translate(-288.369 -209.685)" fill="#fff"/>
            <path id="Path_6810" data-name="Path 6810" d="M301,217.917l.553-.7a6.612,6.612,0,0,1-.814,3.9l-.383-.319Z" transform="translate(-289.561 -212.895)" fill="#070540"/>
            <path id="Path_6811" data-name="Path 6811" d="M295.077,224.859l2.193-1.254.383.319a6.634,6.634,0,0,1-4.106,3.167l-.221-.447Z" transform="translate(-286.479 -215.696)" fill="#f4f3f3"/>
            <path id="Path_6812" data-name="Path 6812" d="M293.659,226.7l1.585-1.616a.19.19,0,0,1,.039-.03l1.992-1.139a.18.18,0,0,1,.2.018l.053.044a.18.18,0,0,1,.039.231,6.593,6.593,0,0,1-.663.9,6.489,6.489,0,0,1-3.039,1.952.179.179,0,0,1-.211-.094l-.031-.063A.178.178,0,0,1,293.659,226.7Z" transform="translate(-286.602 -215.82)" fill="#fff"/>
            <path id="Path_6813" data-name="Path 6813" d="M289.77,228.735l.221.447a6.629,6.629,0,0,1-4.771-.556l1.889-.255Z" transform="translate(-282.922 -217.787)" fill="#f4f3f3"/>
            <path id="Path_6814" data-name="Path 6814" d="M287.792,228.554l2.478.338a.18.18,0,0,1,.136.1h0a.179.179,0,0,1-.122.254,6.512,6.512,0,0,1-3.441-.227.18.18,0,0,1,.035-.347l.865-.117A.173.173,0,0,1,287.792,228.554Z" transform="translate(-283.582 -217.866)" fill="#fff"/>
          </g>
        </g>
      </g>
    </g>
  </g>
</svg>