<svg xmlns="http://www.w3.org/2000/svg" width="13.041" height="14.983" viewBox="0 0 13.041 14.983">
  <path id="share" d="M10.588,10.079a2.447,2.447,0,0,0-1.814.8l-4.038-2.5a2.443,2.443,0,0,0,0-1.778L8.774,4.1a2.452,2.452,0,1,0-.471-.76l-4.038,2.5a2.452,2.452,0,1,0,0,3.3l4.038,2.5a2.452,2.452,0,1,0,2.285-1.563ZM9.03,2.453a1.558,1.558,0,1,1,1.558,1.558A1.56,1.56,0,0,1,9.03,2.453ZM2.452,9.05A1.558,1.558,0,1,1,4.01,7.492,1.56,1.56,0,0,1,2.452,9.05ZM9.03,12.531a1.558,1.558,0,1,1,1.558,1.558A1.56,1.56,0,0,1,9.03,12.531Zm0,0" transform="translate(0 0)" />
</svg>