<svg xmlns="http://www.w3.org/2000/svg" width="18.254" height="18.254" viewBox="0 0 18.254 18.254">
  <path id="Icon_awesome-check-circle" data-name="Icon awesome-check-circle" d="M18.816,9.689A9.127,9.127,0,1,1,9.689.563,9.127,9.127,0,0,1,18.816,9.689ZM8.634,14.522,15.405,7.75a.589.589,0,0,0,0-.833l-.833-.833a.589.589,0,0,0-.833,0L8.217,11.607,5.639,9.029a.589.589,0,0,0-.833,0l-.833.833a.589.589,0,0,0,0,.833L7.8,14.522a.589.589,0,0,0,.833,0Z" transform="translate(-0.563 -0.563)" fill="#00c792"/>
</svg>
