<svg xmlns="http://www.w3.org/2000/svg" width="44.726" height="44.729" viewBox="0 0 44.726 44.729">
  <g id="wallet_1_" data-name="wallet (1)" transform="translate(0)">
    <ellipse id="Ellipse_173" data-name="Ellipse 173" cx="7.304" cy="7.304" rx="7.304" ry="7.304" transform="translate(28.569 0)" fill="#fcd249"/>
    <g id="Group_1703" data-name="Group 1703" transform="translate(28.568 0.45)">
      <path id="Path_6650" data-name="Path 6650" d="M330.155,14.411A7.3,7.3,0,0,1,331.8,5.15,7.3,7.3,0,1,0,339,17.613,7.3,7.3,0,0,1,330.155,14.411Z" transform="translate(-327.02 -5.15)" fill="#f9b938"/>
      <ellipse id="Ellipse_174" data-name="Ellipse 174" cx="4.814" cy="4.814" rx="4.814" ry="4.814" transform="translate(2.491 2.04)" fill="#f9b938"/>
    </g>
    <path id="Path_6651" data-name="Path 6651" d="M358.109,36.661a4.815,4.815,0,0,1,.855-5.9,4.814,4.814,0,1,0,4.681,8.108A4.815,4.815,0,0,1,358.109,36.661Z" transform="translate(-324.457 -28.075)" fill="#e59c1c"/>
    <circle id="Ellipse_175" data-name="Ellipse 175" cx="7.335" cy="7.335" r="7.335" transform="translate(21.685 0)" fill="#fcd249"/>
    <g id="Group_1704" data-name="Group 1704" transform="translate(21.565 0.45)">
      <path id="Path_6652" data-name="Path 6652" d="M250,14.411a7.3,7.3,0,0,1,1.649-9.261,7.3,7.3,0,1,0,7.2,12.463A7.3,7.3,0,0,1,250,14.411Z" transform="translate(-246.863 -5.15)" fill="#f9b938"/>
      <ellipse id="Ellipse_176" data-name="Ellipse 176" cx="4.814" cy="4.814" rx="4.814" ry="4.814" transform="translate(2.49 2.04)" fill="#f9b938"/>
    </g>
    <path id="Path_6653" data-name="Path 6653" d="M277.952,36.661a4.816,4.816,0,0,1,.855-5.9,4.814,4.814,0,1,0,4.681,8.108A4.815,4.815,0,0,1,277.952,36.661Z" transform="translate(-251.303 -28.075)" fill="#e59c1c"/>
    <path id="Path_6654" data-name="Path 6654" d="M72.329,12.274,60.564.419a1.312,1.312,0,0,0-1.851,0L46.948,12.274Z" transform="translate(-42.848 -0.034)" fill="#91ce91"/>
    <g id="Group_1705" data-name="Group 1705" transform="translate(4.1 0.003)">
      <path id="Path_6655" data-name="Path 6655" d="M60.564.419a1.312,1.312,0,0,0-1.851,0L46.948,12.274h3.51L61.393,1.255Z" transform="translate(-46.948 -0.037)" fill="#5eaa5e"/>
      <path id="Path_6656" data-name="Path 6656" d="M95.481,40.705l-8.246,8.336h18.342l-8.246-8.336A1.312,1.312,0,0,0,95.481,40.705Z" transform="translate(-83.715 -36.804)" fill="#5eaa5e"/>
    </g>
    <path id="Path_6657" data-name="Path 6657" d="M97.33,40.706a1.312,1.312,0,0,0-1.851,0l-8.246,8.336h2.34l8-8.088Z" transform="translate(-79.615 -36.801)" fill="#4d964d"/>
    <path id="Path_6658" data-name="Path 6658" d="M44.744,161.325v6.254a4.082,4.082,0,0,1-4.077,4.077H4.1a4.082,4.082,0,0,1-4.077-4.077V143.155A4.082,4.082,0,0,1,4.1,139.078H40.667a4.082,4.082,0,0,1,4.077,4.077v6.23" transform="translate(-0.018 -126.928)" fill="#dd9a5e"/>
    <g id="Group_1706" data-name="Group 1706" transform="translate(0 12.15)">
      <path id="Path_6659" data-name="Path 6659" d="M2.538,167.579V143.155a4.082,4.082,0,0,1,4.077-4.077H4.1a4.082,4.082,0,0,0-4.077,4.077v24.424A4.082,4.082,0,0,0,4.1,171.657h2.52A4.082,4.082,0,0,1,2.538,167.579Z" transform="translate(-0.018 -139.078)" fill="#d38d54"/>
      <path id="Path_6660" data-name="Path 6660" d="M343.145,259.6h-10.4a5.777,5.777,0,0,0-5.76,5.76h0a5.777,5.777,0,0,0,5.76,5.76h10.4Z" transform="translate(-298.419 -249.075)" fill="#d38d54"/>
    </g>
    <path id="Path_6661" data-name="Path 6661" d="M327.121,311.371a5.721,5.721,0,0,0-.136,1.237h0a5.777,5.777,0,0,0,5.76,5.76h10.4v-2.474h-10.4A5.781,5.781,0,0,1,327.121,311.371Z" transform="translate(-298.42 -284.169)" fill="#c17b48"/>
    <ellipse id="Ellipse_177" data-name="Ellipse 177" cx="3.24" cy="3.24" rx="3.24" ry="3.24" transform="translate(31.243 25.172)" fill="#dadada"/>
    <path id="Path_6662" data-name="Path 6662" d="M362.844,292.889a3.24,3.24,0,0,1-1.967-4.75,3.24,3.24,0,1,0,2.806,4.86A3.255,3.255,0,0,1,362.844,292.889Z" transform="translate(-326.393 -262.966)" fill="silver"/>
    <path id="Path_6663" data-name="Path 6663" d="M22,187.821a.676.676,0,0,1,.719-.628l.053,0a.675.675,0,0,1,.667.683A.72.72,0,0,1,22,187.821Zm36.636.724h-.091a.675.675,0,1,1,0-1.35h.091a.675.675,0,1,1,0,1.35Zm-3.261,0h-.091a.675.675,0,1,1,0-1.35h.091a.675.675,0,1,1,0,1.35Zm-3.261,0h-.091a.675.675,0,1,1,0-1.35h.091a.675.675,0,1,1,0,1.35Zm-3.261,0h-.091a.675.675,0,1,1,0-1.35h.091a.675.675,0,1,1,0,1.35Zm-3.261,0H45.5a.675.675,0,1,1,0-1.35h.091a.675.675,0,1,1,0,1.35Zm-3.261,0h-.091a.675.675,0,1,1,0-1.35h.091a.675.675,0,1,1,0,1.35Zm-3.261,0h-.091a.675.675,0,1,1,0-1.35h.091a.675.675,0,1,1,0,1.35Zm-3.261,0h-.091a.675.675,0,1,1,0-1.35h.091a.675.675,0,1,1,0,1.35Zm-3.261,0H32.46a.675.675,0,0,1-.675-.675.722.722,0,0,1,1.44,0A.675.675,0,0,1,32.55,188.545Zm-3.261,0H29.2a.675.675,0,0,1-.675-.675.722.722,0,0,1,1.441,0A.675.675,0,0,1,29.289,188.545Zm-3.261,0h-.091a.675.675,0,1,1,0-1.35h.091a.675.675,0,1,1,0,1.35Zm34.939-1.534h-.033a.675.675,0,0,1-.642-.707c0-.016,0-.031,0-.047v-.011a.675.675,0,1,1,1.35,0v.011q0,.056,0,.112A.675.675,0,0,1,60.967,187.012Zm-39.8-.824a.675.675,0,0,1-.675-.675v-.09a.675.675,0,1,1,1.35,0v.09A.675.675,0,0,1,21.171,186.188Zm39.8-2.437a.675.675,0,0,1-.675-.675v-.091a.675.675,0,1,1,1.35,0v.091A.675.675,0,0,1,60.969,183.751Zm-39.8-.824a.675.675,0,0,1-.675-.675v-.091a.675.675,0,0,1,1.35,0v.091A.675.675,0,0,1,21.171,182.927Zm0-3.261a.675.675,0,0,1-.675-.675v-.09a.675.675,0,0,1,1.35,0v.09A.675.675,0,0,1,21.171,179.666Zm0-3.261a.675.675,0,0,1-.675-.675v-.09a.675.675,0,0,1,.675-.675A.722.722,0,0,1,21.171,176.4Zm0-3.261a.675.675,0,0,1-.675-.675v-.091a.675.675,0,0,1,1.35,0v.091A.675.675,0,0,1,21.171,173.144Zm0-3.261a.675.675,0,0,1-.675-.675v-.091a.675.675,0,0,1,1.35,0v.091A.675.675,0,0,1,21.171,169.882Zm0-3.261a.675.675,0,0,1-.675-.675v-.091a.675.675,0,1,1,1.35,0v.091A.675.675,0,0,1,21.171,166.621Zm39.8-.858a.675.675,0,0,1-.675-.675V165a.675.675,0,0,1,1.35,0v.091A.675.675,0,0,1,60.969,165.763Zm-39.8-2.4a.675.675,0,0,1-.675-.675v-.091a.675.675,0,0,1,1.35,0v.091A.675.675,0,0,1,21.171,163.36Zm39.123-1.531c0-.018,0-.036,0-.054a.724.724,0,1,1,0,.054Zm-37.635-.93a.679.679,0,1,1,.077-1.354A.679.679,0,1,1,22.658,160.9Zm35.964,0h-.091a.675.675,0,0,1,0-1.35h.091a.675.675,0,0,1,0,1.35Zm-3.261,0H55.27a.675.675,0,0,1,0-1.35h.091a.675.675,0,0,1,0,1.35Zm-3.261,0h-.091a.675.675,0,0,1,0-1.35H52.1a.675.675,0,0,1,0,1.35Zm-3.261,0h-.091a.675.675,0,0,1,0-1.35h.091a.675.675,0,0,1,0,1.35Zm-3.261,0h-.091a.675.675,0,0,1,0-1.35h.091a.675.675,0,0,1,0,1.35Zm-3.261,0h-.091a.675.675,0,1,1,0-1.35h.091a.675.675,0,0,1,0,1.35Zm-3.261,0h-.091a.675.675,0,0,1,0-1.35h.091a.675.675,0,0,1,0,1.35Zm-3.261,0H35.7a.675.675,0,0,1-.675-.675.722.722,0,0,1,1.441,0A.675.675,0,0,1,35.794,160.895Zm-3.261,0h-.091a.675.675,0,0,1,0-1.35h.091a.675.675,0,0,1,0,1.35Zm-3.261,0h-.091a.675.675,0,0,1,0-1.35h.091a.675.675,0,0,1,0,1.35Zm-3.261,0H25.92a.675.675,0,0,1,0-1.35h.091a.675.675,0,0,1,0,1.35Z" transform="translate(-18.707 -145.606)" fill="#eab883"/>
  </g>
</svg>